<?xml version="1.0" encoding="utf-8"?>
<svg version="1.1" xmlns="http://www.w3.org/2000/svg" width="700px" height="100px" viewBox="0 0 700 100" xmlns:bx="https://boxy-svg.com">
  <g style="" transform="matrix(0.198287, 0, 0, 0.198287, 1.503333, 0.694377)">
    <g transform="matrix(1.20744, 0, 0, 1.20744, 549.419312, -139.996063)" style="">
      <path d="M -301.65 123.894 C -301.25 123.895 -300.84 123.896 -300.42 123.898 C -294.33 123.923 -288.43 124.139 -282.47 125.516 C -281.82 125.662 -281.82 125.662 -281.14 125.81 C -265.48 129.354 -251.67 135.957 -240.38 147.541 C -239.97 147.917 -239.97 147.917 -239.56 148.3 C -235.02 152.573 -231.55 157.762 -228.51 163.173 C -228.3 163.543 -228.09 163.912 -227.88 164.294 C -226.91 166.059 -226.1 167.719 -225.59 169.667 C -224.56 173.293 -223.32 175.267 -220.01 177.227 C -217.44 178.596 -214.83 179.837 -212.19 181.048 C -209.2 182.428 -206.34 184.015 -203.49 185.657 C -202.79 186.054 -202.79 186.054 -202.08 186.459 C -197.01 189.369 -192.06 192.281 -187.52 195.997 C -186.75 196.572 -186.75 196.572 -185.96 197.159 C -183.85 199.13 -182.12 201.494 -181.16 204.239 C -179.6 206.687 -177.26 207.817 -174.79 209.273 C -173.72 209.927 -172.64 210.581 -171.57 211.235 C -170.77 211.717 -170.77 211.717 -169.95 212.209 C -167.88 213.465 -165.83 214.762 -163.78 216.064 C -153.83 222.366 -153.83 222.366 -143.78 228.522 C -143.32 228.797 -143.32 228.797 -142.86 229.078 C -141.38 229.966 -139.91 230.852 -138.43 231.734 C -123.51 240.705 -123.51 240.705 -120.95 248.368 C -120.41 252.683 -121.62 256.499 -124.21 259.954 C -125.14 261.16 -126.11 262.337 -127.09 263.509 C -128.96 265.832 -129.37 267.081 -129.46 270.057 C -129.91 277.373 -132.06 283.4 -137.01 288.809 C -138.31 290.298 -138.15 291.589 -138.17 293.511 C -138.36 305.04 -139.32 314.196 -147.88 322.765 C -148.19 323.083 -148.5 323.401 -148.82 323.728 C -152.43 327.148 -157.42 329.723 -162.38 330.321 C -165.28 330.228 -167.79 328.842 -170.39 327.66 C -181.4 322.68 -192.96 319.853 -204.65 316.892 C -204.49 317.482 -204.34 318.073 -204.17 318.681 C -202.43 326.568 -203.07 335.684 -205.63 343.322 C -205.78 343.785 -205.78 343.785 -205.94 344.258 C -210.12 356.572 -218.38 364.615 -228.63 372.2 C -228.96 372.038 -229.28 371.877 -229.61 371.71 C -229.48 371.332 -229.48 371.332 -229.34 370.945 C -225.79 360.99 -223.52 351.74 -223.5 341.15 C -223.49 340.596 -223.49 340.596 -223.49 340.032 C -223.47 333.031 -224.25 326.277 -226.98 319.767 C -227.15 319.357 -227.32 318.946 -227.49 318.524 C -235.02 300.858 -250.78 292.16 -266.96 283.548 C -282.88 275.071 -298.55 264.606 -304.58 246.674 C -304.92 245.448 -305.23 244.23 -305.48 242.984 C -306.1 254.261 -301.4 264.049 -294.04 272.382 C -293.29 273.191 -292.53 273.997 -291.77 274.799 C -291.28 275.342 -291.28 275.342 -290.77 275.896 C -285.61 281.349 -279.08 285.256 -272.79 289.273 C -254.39 301.087 -236.86 315.162 -231.57 337.449 C -230.63 341.829 -230.42 346.1 -230.44 350.572 C -230.44 350.896 -230.44 351.221 -230.44 351.555 C -230.47 356.361 -230.71 360.718 -232.06 365.348 C -232.27 366.125 -232.47 366.903 -232.67 367.682 C -234.99 376.205 -238.93 383.48 -243.81 390.799 C -244.02 391.125 -244.24 391.451 -244.47 391.787 C -245.03 392.619 -245.64 393.424 -246.25 394.225 C -246.58 394.225 -246.9 394.225 -247.23 394.225 C -247.2 393.946 -247.18 393.667 -247.14 393.379 C -244.99 372.411 -245.76 352.038 -259.36 334.827 C -260.83 333.084 -262.33 331.379 -263.88 329.703 C -264.66 328.849 -265.39 327.986 -266.11 327.078 C -267.34 325.66 -268.62 324.474 -270.05 323.264 C -270.88 322.562 -271.7 321.844 -272.5 321.119 C -279.28 315.148 -286.98 310.399 -294.59 305.573 C -301.55 301.152 -308.28 296.623 -314.29 290.951 C -314.95 290.387 -315.61 289.826 -316.28 289.268 C -324.54 282.011 -330.74 272.098 -333.87 261.584 C -334.02 261.074 -334.18 260.564 -334.34 260.038 C -336.69 250.716 -336.21 239.905 -333.38 230.748 C -333.2 230.119 -333.02 229.489 -332.84 228.861 C -331.4 224.163 -329.31 219.904 -327.01 215.575 C -327.18 215.575 -327.34 215.575 -327.5 215.575 C -338.68 228.524 -343.43 244.178 -342.68 261.094 C -341.5 276.365 -332.46 290.445 -321.26 300.477 C -319.94 301.574 -318.59 302.629 -317.23 303.676 C -316.77 304.045 -316.31 304.413 -315.84 304.793 C -310.64 308.911 -305.07 312.486 -299.53 316.112 C -279.51 329.205 -262.34 345.315 -256.99 369.546 C -256.03 374.304 -255.5 379.04 -255.45 383.889 C -255.44 384.711 -255.42 385.534 -255.41 386.355 C -255.39 387.624 -255.37 388.894 -255.36 390.163 C -255.21 403.358 -251.98 414.632 -242.34 424.082 C -234.96 431.098 -224.56 434.065 -214.56 433.976 C -204.56 433.599 -195.58 430.307 -188.21 423.414 C -181.02 415.556 -177.76 405.423 -178.08 394.892 C -178.57 385.636 -182.65 376.541 -189.48 370.242 C -194.03 366.674 -198.63 364.888 -204.16 363.39 C -205.14 363.07 -206.12 362.747 -207.1 362.411 C -201.41 355.262 -193.52 351.457 -184.58 350.174 C -176.11 349.38 -167.6 351.495 -160.9 356.822 C -155.15 361.71 -151.7 367.564 -149.34 374.647 C -149.13 374.068 -148.92 373.489 -148.7 372.892 C -145.55 364.486 -141.27 358.208 -135.15 351.643 C -134.82 351.28 -134.49 350.917 -134.15 350.543 C -125.59 341.518 -114.3 336.964 -103.02 332.33 C -92.669 328.07 -83.097 323.654 -74.457 316.402 C -74.158 316.174 -73.859 315.947 -73.551 315.712 C -67.028 310.604 -63.807 303.053 -62.821 295.021 C -62.784 294.647 -62.748 294.273 -62.71 293.887 C -61.058 295.801 -59.927 297.753 -58.825 300.006 C -58.655 300.354 -58.484 300.702 -58.308 301.06 C -49.191 319.93 -49.6 341.169 -56.297 360.755 C -59.444 369.562 -63.897 377.504 -69.563 384.926 C -69.873 385.346 -70.185 385.767 -70.505 386.201 C -75.469 392.617 -81.578 398.611 -87.976 403.587 C -89.692 404.937 -91.288 406.41 -92.899 407.88 C -93.885 408.773 -94.887 409.638 -95.901 410.5 C -100.61 414.618 -104.9 419.127 -108.72 424.082 C -109 424.445 -109.28 424.809 -109.57 425.184 C -113.23 429.912 -116.82 434.68 -120.25 439.584 C -124.51 445.677 -128.88 451.687 -133.68 457.365 C -134.08 457.853 -134.49 458.341 -134.9 458.844 C -140.97 466.148 -147.48 473.246 -154.73 479.39 C -155.18 479.786 -155.64 480.182 -156.11 480.591 C -182.98 503.816 -216.79 518.104 -252.13 521.483 C -252.84 521.552 -252.84 521.552 -253.56 521.622 C -258.22 522.032 -262.87 522.091 -267.55 522.095 C -267.96 522.095 -268.38 522.096 -268.81 522.096 C -276.54 522.09 -284.11 521.598 -291.77 520.504 C -292.27 520.433 -292.77 520.362 -293.28 520.29 C -331.88 514.573 -367.2 495.884 -394.74 468.5 C -395.06 468.182 -395.38 467.863 -395.71 467.536 C -428.89 434.247 -444.67 388.339 -444.6 342.017 C -444.41 297.932 -425.97 259.603 -399.45 225.364 C -398.94 224.698 -398.43 224.032 -397.92 223.366 C -395.64 220.422 -393.3 217.565 -390.77 214.829 C -389.85 213.818 -388.95 212.793 -388.05 211.757 C -383.32 206.338 -378.18 201.358 -372.38 197.094 C -371.57 196.497 -370.77 195.887 -369.97 195.276 C -362.2 189.442 -353.74 185.128 -344.63 181.803 C -366.51 186.446 -385.22 202.102 -400.58 217.556 C -401.6 218.579 -402.62 219.596 -403.65 220.613 C -407.21 224.17 -410.54 227.766 -413.65 231.727 C -414.11 232.266 -414.57 232.802 -415.03 233.335 C -422.44 241.836 -428.78 251.313 -434.12 261.236 C -434.41 261.763 -434.41 261.763 -434.7 262.3 C -434.94 262.767 -434.94 262.767 -435.2 263.243 C -435.67 264.031 -435.67 264.031 -436.65 265.01 C -437.29 236.417 -424.9 211.687 -405.66 191.376 C -402.96 188.599 -400.05 186.158 -397.01 183.761 C -396.51 183.361 -396.02 182.961 -395.51 182.55 C -380.11 170.256 -360.26 163.286 -340.72 161.735 C -358.41 156.46 -384.68 165.001 -400.3 172.987 C -400.69 173.186 -401.09 173.387 -401.49 173.593 C -401.83 173.772 -402.17 173.952 -402.52 174.137 C -402.94 174.297 -402.94 174.297 -403.37 174.461 C -403.69 174.299 -404.01 174.138 -404.35 173.972 C -403.96 173.557 -403.58 173.143 -403.18 172.717 C -402.66 172.156 -402.14 171.596 -401.63 171.035 C -401.36 170.743 -401.08 170.451 -400.81 170.15 C -399.4 168.634 -398.03 167.106 -396.7 165.529 C -380.38 146.832 -353.68 135.73 -329.35 133.911 C -323.19 133.571 -316.98 133.591 -310.86 134.326 C -317.36 131.341 -323.97 129.546 -330.93 127.963 C -328.85 126.839 -326.78 126.456 -324.48 126.005 C -324.09 125.924 -323.7 125.844 -323.3 125.76 C -316.1 124.329 -308.97 123.86 -301.65 123.894 Z M -362.97 219.613 C -377.63 235.06 -388.35 255.292 -387.78 277.053 C -387.76 277.618 -387.73 278.166 -387.71 278.714 C -387.54 284.319 -386.53 289.722 -384.89 295.079 C -375.97 322.541 -350.83 337.236 -326.56 349.681 C -306.41 360.009 -288.26 369.795 -274.22 388.101 C -274.03 388.353 -273.85 388.597 -273.66 388.841 C -273.5 388.508 -273.34 388.185 -273.17 387.862 C -273.65 386.484 -273.65 386.484 -275.14 383.155 C -275.46 382.44 -275.79 381.725 -276.11 381.01 C -279.71 372.866 -283.58 365.802 -290.08 359.604 C -290.49 359.227 -290.89 358.861 -291.28 358.495 C -301.71 348.77 -313.61 341.775 -326.07 334.965 C -336.98 328.996 -347.99 322.839 -356.67 313.764 C -357.07 313.329 -357.46 312.908 -357.85 312.487 C -366.81 303.025 -372.7 292.445 -375.28 279.666 C -375.34 279.343 -375.41 279.029 -375.47 278.714 C -375.69 277.708 -375.89 276.698 -376.08 275.686 C -378.56 257.825 -372.76 239.1 -362.22 224.654 C -361.74 224.024 -361.74 224.024 -361.28 223.406 C -356.36 216.825 -350.82 211.334 -344.58 206.01 C -344.1 205.6 -343.63 205.204 -343.17 204.807 C -343.66 204.559 -343.66 204.559 -344.14 204.317 C -350.97 208.868 -357.26 213.707 -362.97 219.613 Z M -298.7 463.394 C -296.53 468.404 -294.08 471.645 -289.03 473.973 C -285.32 475.14 -280.61 475.273 -277.01 473.596 C -272.67 470.833 -269.09 466.826 -267.79 461.769 C -270.39 463.348 -272.97 464.776 -275.9 465.624 C -283.53 467.279 -290.77 466.359 -297.42 462.38 C -297.78 462.103 -298.3 461.779 -299.12 461.28 C -299.12 462.259 -299.12 462.259 -298.7 463.394 Z M -299.57 433.932 C -299.01 432.865 -299.01 432.865 -298.63 431.913 C -298.69 431.795 -298.74 431.678 -298.8 431.563 C -298.74 431.355 -298.68 431.146 -298.63 430.934 C -298.76 431 -298.89 431.065 -299.02 431.129 C -299.05 431.064 -299.08 430.999 -299.12 430.934 C -299.31 431.126 -299.46 431.281 -299.59 431.416 C -299.6 431.419 -299.6 431.421 -299.61 431.423 C -302.09 432.914 -304.56 434.311 -307.36 435.096 C -315.16 436.323 -322.34 435.221 -329.04 431.035 C -329.35 430.834 -329.65 430.639 -329.95 430.444 C -329.95 431.582 -329.95 431.582 -328.93 433.772 C -328.43 434.816 -327.9 435.784 -327.34 436.678 C -327.07 437.211 -326.8 437.743 -326.52 438.275 C -326.5 438.184 -326.46 438.094 -326.44 438.004 C -324.66 440.392 -322.43 442.158 -319.14 443.338 C -314.9 444.294 -310.32 444.26 -306.46 442.191 C -303.58 440.21 -301.5 437.804 -300.08 434.891 C -299.91 434.566 -299.74 434.249 -299.57 433.932 Z M -326.52 380.52 C -326.52 380.468 -326.52 380.415 -326.52 380.363 C -326.38 380.29 -326.23 380.214 -326.08 380.136 C -321.76 377.619 -318.99 373.605 -317.71 368.773 C -318.05 368.94 -318.37 369.101 -318.69 369.263 C -321.45 370.941 -324.08 372.328 -327.23 373.117 C -334.97 374.686 -342.03 373.071 -348.67 368.857 C -348.96 368.662 -349.24 368.473 -349.53 368.284 C -349.53 369.094 -349.53 369.308 -348.94 370.486 C -348.68 371.298 -348.37 372.089 -347.97 372.907 C -345.49 377.321 -342.59 380.086 -337.73 381.671 C -334.03 382.503 -330.73 382.202 -327.42 380.775 C -327.12 380.69 -326.82 380.605 -326.52 380.52 Z M -295.65 406.595 C -295.68 406.846 -293.25 403.026 -293.49 402.54 C -293.19 401.754 -292.95 400.939 -292.75 400.098 C -295.08 401.649 -297.35 403.072 -300 404.01 C -307.64 406.137 -314.41 404.932 -321.34 401.274 C -322.41 400.697 -323.48 400.145 -324.57 399.609 C -324.26 400.771 -324.26 400.771 -323.59 402.545 C -321.35 407.035 -318.36 410.587 -313.62 412.505 C -309.05 413.639 -304.23 413.106 -300.13 410.866 C -298.34 409.682 -296.84 408.243 -295.65 406.595 Z M -341.38 405.222 C -341.12 404.728 -340.86 404.249 -340.6 403.769 C -339.79 402.316 -339.79 402.316 -339.25 401.077 C -339.31 400.95 -339.38 400.824 -339.44 400.699 C -339.38 400.5 -339.31 400.299 -339.25 400.098 C -339.37 400.184 -339.49 400.268 -339.61 400.351 C -339.66 400.267 -339.7 400.182 -339.74 400.098 C -339.93 400.327 -340.1 400.559 -340.27 400.793 C -342.57 402.29 -344.88 403.371 -347.59 404.146 C -355.52 405.843 -362.93 404.491 -369.71 400.182 C -370.01 399.987 -370.29 399.798 -370.58 399.609 C -370.58 400.856 -370.58 401.044 -370.18 401.947 C -369.73 403.536 -368.93 404.997 -367.95 406.351 C -367.85 406.551 -367.74 406.751 -367.64 406.951 C -367.63 406.907 -367.61 406.866 -367.6 406.825 C -367.17 407.384 -366.71 407.924 -366.24 408.448 C -363.12 411.353 -360.21 412.886 -355.89 413.026 C -355.54 413.03 -355.2 413.034 -354.85 413.038 C -352.12 413.08 -350.03 412.586 -347.57 411.356 C -345.22 410.047 -343.4 408.246 -342 406.129 C -341.83 405.909 -341.65 405.634 -341.38 405.222 Z M -375.47 433.87 C -375.46 433.878 -375.44 433.886 -375.43 433.894 C -373.52 437.942 -370.95 441.359 -366.68 443.262 C -362.48 444.385 -357.24 444.463 -353.37 442.313 C -353.06 442.105 -352.76 441.904 -352.47 441.702 C -350.75 440.562 -347.76 437.69 -347.57 437.786 C -346.18 435.395 -344.9 433.126 -344.15 430.444 C -344.64 430.278 -346.43 431.423 -346.1 431.423 C -348.13 432.773 -350.11 434.03 -352.4 434.88 C -359.62 436.872 -366.88 436.052 -373.45 432.492 C -373.99 432.194 -374.53 431.906 -375.07 431.627 C -375.53 431.388 -375.99 431.157 -376.45 430.934 C -376.45 431.423 -376.45 431.423 -376.05 432.494 C -375.97 432.678 -375.89 432.861 -375.81 433.043 C -375.73 433.265 -375.61 433.53 -375.47 433.87 Z M -344.15 464.216 C -342.32 468.098 -339.9 471.05 -336.16 473.181 C -332.22 474.995 -328.09 475.187 -323.99 473.761 C -318.68 471.303 -316.21 467.348 -313.8 462.259 C -314.13 462.092 -314.45 461.931 -314.78 461.769 C -317.23 463.821 -319.63 464.949 -322.71 465.817 C -330.3 467.277 -337.26 466.045 -343.79 461.853 C -344.22 461.564 -344.22 461.564 -344.63 461.28 C -344.57 462.442 -344.57 462.442 -344.15 464.216 Z M -251.73 181.619 C -259.96 184.668 -266.07 191.263 -270.06 198.981 C -275.17 209.781 -276.52 222.225 -272.69 233.684 C -267.34 247.405 -256.56 253.776 -243.81 259.625 C -234.26 263.999 -223.68 268.81 -216.39 276.613 C -216.06 276.994 -215.74 277.365 -215.42 277.735 C -212.42 281.197 -209.86 284.663 -207.77 288.748 C -201.78 300.517 -194.35 306.055 -182.14 310.809 C -180.59 311.411 -179.04 312.016 -177.49 312.627 C -176.91 312.857 -176.91 312.857 -176.34 313.083 C -173.32 314.275 -170.43 315.612 -167.56 317.121 C -165.84 318.063 -164.41 318.816 -162.42 318.99 C -158.84 318.611 -155.42 316.056 -153.04 313.444 C -148.21 307.36 -146.8 300.515 -147.39 292.908 C -148.41 291.88 -148.41 291.88 -163.41 291.815 C -164.77 291.812 -166.12 291.807 -167.47 291.792 C -171.6 291.745 -175.63 291.617 -179.66 292.665 C -182.16 293.464 -184.42 293.554 -187.03 293.398 C -187.19 290.935 -187.43 288.773 -186.27 286.545 C -184.33 284.955 -182.43 284.186 -179.97 283.909 C -179.37 283.907 -178.78 283.904 -178.2 283.902 C -177.17 283.891 -176.14 283.882 -175.1 283.882 C -174.37 283.882 -173.63 283.879 -172.9 283.873 C -170.97 283.855 -169.03 283.839 -167.09 283.832 C -163.94 283.82 -160.78 283.805 -157.62 283.778 C -156.51 283.768 -155.4 283.76 -154.28 283.758 C -153.58 283.757 -152.88 283.754 -152.18 283.749 C -151.85 283.746 -151.52 283.744 -151.2 283.741 C -148.24 283.731 -146.35 283.487 -144.14 281.437 C -141.63 278.157 -141.36 273.902 -141.22 269.914 C -141.87 266.64 -144.1 264.208 -146.41 261.913 C -146.86 261.484 -146.86 261.484 -147.29 261.063 C -149.14 259.25 -151 257.463 -152.95 255.771 C -153.93 254.937 -154.89 254.093 -155.83 253.22 C -156.39 252.685 -156.39 252.685 -156.93 252.161 C -157.43 251.679 -157.43 251.679 -157.92 251.205 C -158.8 250.326 -158.8 250.326 -158.64 248.857 C -154.83 248.772 -151.12 248.92 -147.33 249.379 C -142.42 250.007 -137.66 250.436 -132.7 250.326 C -135.38 244.596 -135.38 244.596 -152.51 234.599 C -153.19 234.206 -153.86 233.812 -154.53 233.416 C -155.92 232.601 -157.3 231.787 -158.68 230.976 C -161.13 229.542 -163.58 228.102 -166.02 226.658 C -166.47 226.395 -166.9 226.139 -167.33 225.884 C -169.43 224.645 -171.53 223.406 -173.62 222.15 C -174.06 221.887 -174.48 221.632 -174.91 221.377 C -175.75 220.871 -176.59 220.364 -177.43 219.857 C -179.36 218.678 -181.28 217.487 -183.29 216.447 C -186.57 214.817 -189.99 213.659 -191.25 209.946 C -192.57 204.58 -196.13 201.048 -200.55 197.876 C -214.33 188.418 -234.37 176.745 -251.73 181.619 Z M -302.39 171.769 C -306.02 173.625 -308.73 176.997 -310.07 180.825 C -311.43 187.376 -310.23 193.021 -306.89 198.75 C -302.8 204.857 -297.33 208.087 -290.31 209.701 C -291.07 208.632 -291.86 207.65 -292.76 206.688 C -296.98 202.267 -300.32 197.164 -301.56 191.102 C -301.81 187.772 -302.18 184.426 -300.25 181.558 C -298.51 179.68 -296.93 178.932 -294.37 178.705 C -293.73 178.718 -293.1 178.731 -292.48 178.743 C -289.18 178.783 -286.81 179.057 -283.86 180.568 C -281.64 181.732 -279.44 182.875 -277.09 183.76 C -278.79 178.669 -283.25 174.631 -287.89 172.208 C -292.81 170.087 -297.41 169.744 -302.39 171.769 Z M -333.87 149.988 C -319.55 151.489 -305.67 155.443 -292.88 162.127 C -292.32 162.423 -292.32 162.423 -291.77 162.714 C -284.97 166.268 -278.28 170.282 -272.64 175.541 C -271.47 176.637 -271.47 176.637 -268.28 179.355 C -269.78 175.278 -272.2 171.376 -275.22 168.251 C -291.54 153.045 -312.26 149.06 -333.87 149.498 C -333.87 149.665 -333.87 149.826 -333.87 149.988 Z M -270.17 145.784 C -262.75 150.55 -257 156.609 -251.73 163.631 C -249.98 166.022 -248.19 168.218 -246.06 170.285 C -245.54 170.78 -245.03 171.282 -244.52 171.787 C -243.96 172.353 -243.39 172.917 -242.83 173.482 C -243.55 168.815 -245.64 164.83 -248.08 160.834 C -253.83 152.277 -263.97 144.824 -274.15 142.646 C -272.95 143.914 -271.64 144.835 -270.17 145.784 Z" style="fill: rgb(76, 29, 149);"/>
      <path d="M -201.81 212.77 C -197.42 216.232 -196.25 221.25 -195.26 226.495 C -195.17 226.932 -195.09 227.369 -195 227.819 C -194.37 231.023 -194.37 231.023 -194.37 232.705 C -199.5 231.843 -203.75 229.32 -207.93 226.373 C -211.16 224.116 -214.21 222.618 -217.94 221.387 C -221.85 220.055 -225.5 218.249 -229.19 216.4 C -229.5 216.246 -229.81 216.092 -230.13 215.933 C -235.4 213.305 -235.4 213.305 -235.98 212.148 C -211.06 206.755 -211.06 206.755 -201.81 212.77 Z" style="fill: rgb(76, 29, 149);"/>
    </g>
    <path d="M 547.824 462.055 L 547.824 145.98 L 618.786 145.98 L 618.786 199.978 L 622.744 199.978 Q 632.639 172.838 655.539 157.43 Q 678.439 142.022 709.82 142.022 Q 742.049 142.022 764.101 157.571 Q 786.153 173.12 794.917 199.978 L 798.31 199.978 Q 809.053 173.686 833.932 157.854 Q 858.811 142.022 893.302 142.022 Q 936.84 142.022 964.405 169.586 Q 991.969 197.151 991.969 250.019 L 991.969 462.055 L 917.333 462.055 L 917.333 261.327 Q 917.333 232.208 901.642 218.496 Q 885.951 204.784 863.334 204.784 Q 836.476 204.784 821.492 221.606 Q 806.508 238.428 806.508 264.72 L 806.508 462.055 L 733.003 462.055 L 733.003 258.5 Q 733.003 233.904 718.584 219.344 Q 704.166 204.784 680.418 204.784 Q 664.303 204.784 651.015 212.983 Q 637.728 221.182 629.953 235.883 Q 622.178 250.584 622.178 269.809 L 622.178 462.055 Z M 1186.814 468.275 Q 1139.317 468.275 1104.826 448.343 Q 1070.335 428.412 1051.817 391.942 Q 1033.299 355.471 1033.299 305.996 Q 1033.299 257.087 1051.676 220.192 Q 1070.052 183.298 1103.413 162.66 Q 1136.773 142.022 1182.007 142.022 Q 1211.127 142.022 1237.278 151.351 Q 1263.429 160.681 1283.643 180.188 Q 1303.857 199.696 1315.449 229.805 Q 1327.04 259.914 1327.04 301.473 L 1327.04 324.656 L 1068.073 324.656 L 1068.073 274.615 L 1290.004 274.615 L 1255.231 289.316 Q 1255.231 262.458 1247.032 242.527 Q 1238.833 222.596 1222.718 211.287 Q 1206.604 199.978 1182.573 199.978 Q 1158.542 199.978 1141.579 211.287 Q 1124.616 222.596 1115.852 241.679 Q 1107.088 260.762 1107.088 284.227 L 1107.088 319.001 Q 1107.088 347.838 1117.124 368.335 Q 1127.161 388.832 1145.396 399.575 Q 1163.631 410.318 1187.944 410.318 Q 1203.776 410.318 1216.923 405.795 Q 1230.069 401.271 1239.54 392.083 Q 1249.011 382.895 1254.1 369.325 L 1323.648 377.523 Q 1316.862 404.947 1298.627 425.443 Q 1280.392 445.94 1251.979 457.107 Q 1223.566 468.275 1186.814 468.275 Z M 1367.107 462.055 L 1367.107 145.98 L 1439.199 145.98 L 1439.199 199.13 L 1442.592 199.13 Q 1451.073 171.424 1472.277 156.582 Q 1493.48 141.739 1520.621 141.739 Q 1526.558 141.739 1534.333 142.305 Q 1542.107 142.87 1547.196 143.718 L 1547.196 212.135 Q 1542.39 210.439 1532.212 209.308 Q 1522.034 208.177 1512.705 208.177 Q 1492.067 208.177 1475.952 216.941 Q 1459.837 225.705 1450.649 240.972 Q 1441.461 256.239 1441.461 276.594 L 1441.461 462.055 Z M 1649.439 40.81 L 1649.439 462.055 L 1575.085 462.055 L 1575.085 40.81 Z M 1704.334 462.055 L 1704.334 145.98 L 1778.688 145.98 L 1778.688 462.055 Z M 1741.511 101.594 Q 1723.842 101.594 1711.12 89.744 Q 1698.397 77.894 1698.397 61.165 Q 1698.397 44.202 1711.12 32.328 Q 1723.842 20.454 1741.511 20.454 Q 1759.181 20.454 1771.903 32.328 Q 1784.625 44.202 1784.625 61.024 Q 1784.625 77.846 1771.903 89.72 Q 1759.181 101.594 1741.511 101.594 Z M 1971.296 468.275 Q 1924.931 468.275 1891.005 447.919 Q 1857.079 427.564 1838.562 390.811 Q 1820.044 354.058 1820.044 305.431 Q 1820.044 256.521 1838.562 219.627 Q 1857.079 182.733 1891.005 162.377 Q 1924.931 142.022 1971.296 142.022 Q 2017.661 142.022 2051.587 162.377 Q 2085.513 182.733 2104.172 219.627 Q 2122.831 256.521 2122.831 305.431 Q 2122.831 354.058 2104.172 390.811 Q 2085.513 427.564 2051.587 447.919 Q 2017.661 468.275 1971.296 468.275 Z M 1971.296 408.339 Q 1997.023 408.339 2013.703 394.628 Q 2030.384 380.916 2038.724 357.451 Q 2047.064 333.985 2047.064 305.431 Q 2047.064 276.311 2038.724 252.846 Q 2030.384 229.381 2013.703 215.669 Q 1997.023 201.957 1971.296 201.957 Q 1946.135 201.957 1929.172 215.669 Q 1912.209 229.381 1903.869 252.846 Q 1895.529 276.311 1895.529 305.431 Q 1895.529 333.985 1903.869 357.451 Q 1912.209 380.916 1929.172 394.628 Q 1946.135 408.339 1971.296 408.339 Z M 2238.279 277.159 L 2238.279 462.055 L 2163.925 462.055 L 2163.925 145.98 L 2236.866 145.98 L 2236.866 199.978 L 2240.541 199.978 Q 2251.284 173.403 2274.325 157.712 Q 2297.367 142.022 2332.989 142.022 Q 2365.784 142.022 2390.097 155.875 Q 2414.411 169.728 2427.84 196.444 Q 2441.269 223.161 2441.269 261.045 L 2441.269 462.055 L 2366.915 462.055 L 2366.915 272.636 Q 2366.915 240.972 2350.517 223.02 Q 2334.12 205.067 2305.283 205.067 Q 2285.775 205.067 2270.65 213.549 Q 2255.525 222.03 2246.902 238.003 Q 2238.279 253.977 2238.279 277.159 Z M 2550.442 466.861 Q 2531.218 466.861 2518.072 453.715 Q 2504.925 440.569 2504.925 421.627 Q 2504.925 402.685 2518.072 389.539 Q 2531.218 376.392 2550.442 376.392 Q 2569.667 376.392 2582.813 389.539 Q 2595.959 402.685 2595.959 421.627 Q 2595.959 440.569 2582.813 453.715 Q 2569.667 466.861 2550.442 466.861 Z M 2827.222 467.709 Q 2800.365 467.709 2782.412 458.521 Q 2764.46 449.333 2753.575 436.469 Q 2742.691 423.606 2737.036 412.014 L 2732.513 412.014 L 2732.513 462.055 L 2659.573 462.055 L 2659.573 40.81 L 2733.927 40.81 L 2733.927 198.282 L 2737.036 198.282 Q 2742.691 186.973 2753.151 173.827 Q 2763.612 160.681 2781.564 151.351 Q 2799.516 142.022 2827.505 142.022 Q 2863.975 142.022 2893.378 160.681 Q 2922.78 179.34 2940.167 215.528 Q 2957.554 251.715 2957.554 304.583 Q 2957.554 356.602 2940.591 393.073 Q 2923.628 429.543 2894.084 448.626 Q 2864.541 467.709 2827.222 467.709 Z M 2806.867 406.643 Q 2831.463 406.643 2848.002 393.355 Q 2864.541 380.068 2873.022 356.885 Q 2881.504 333.702 2881.504 304.3 Q 2881.504 274.898 2873.022 251.998 Q 2864.541 229.098 2848.143 216.093 Q 2831.746 203.088 2806.867 203.088 Q 2782.836 203.088 2766.297 215.528 Q 2749.759 227.967 2741.136 250.726 Q 2732.513 273.484 2732.513 304.3 Q 2732.513 334.833 2741.136 357.875 Q 2749.759 380.916 2766.439 393.779 Q 2783.119 406.643 2806.867 406.643 Z M 3136.407 468.275 Q 3090.042 468.275 3056.116 447.919 Q 3022.19 427.564 3003.672 390.811 Q 2985.155 354.058 2985.155 305.431 Q 2985.155 256.521 3003.672 219.627 Q 3022.19 182.733 3056.116 162.377 Q 3090.042 142.022 3136.407 142.022 Q 3182.772 142.022 3216.698 162.377 Q 3250.624 182.733 3269.283 219.627 Q 3287.942 256.521 3287.942 305.431 Q 3287.942 354.058 3269.283 390.811 Q 3250.624 427.564 3216.698 447.919 Q 3182.772 468.275 3136.407 468.275 Z M 3136.407 408.339 Q 3162.134 408.339 3178.814 394.628 Q 3195.494 380.916 3203.834 357.451 Q 3212.175 333.985 3212.175 305.431 Q 3212.175 276.311 3203.834 252.846 Q 3195.494 229.381 3178.814 215.669 Q 3162.134 201.957 3136.407 201.957 Q 3111.245 201.957 3094.282 215.669 Q 3077.32 229.381 3068.979 252.846 Q 3060.639 276.311 3060.639 305.431 Q 3060.639 333.985 3068.979 357.451 Q 3077.32 380.916 3094.282 394.628 Q 3111.245 408.339 3136.407 408.339 Z M 3486.538 145.98 L 3486.538 203.654 L 3305.318 203.654 L 3305.318 145.98 Z M 3349.704 70.778 L 3424.058 70.778 L 3424.058 367.063 Q 3424.058 385.722 3432.257 394.628 Q 3440.456 403.533 3458.267 403.533 Q 3463.073 403.533 3469.01 402.685 Q 3474.947 401.837 3479.753 400.706 L 3492.475 458.945 Q 3480.601 462.62 3468.445 464.458 Q 3456.288 466.296 3444.131 466.296 Q 3400.028 466.296 3374.866 442.972 Q 3349.704 419.648 3349.704 379.22 Z" style="fill: rgb(76, 29, 149); text-wrap-mode: nowrap;"/>
  </g>
  <defs>
    <bx:grid x="0" y="0" width="100" height="100"/>
  </defs>
</svg>