<?xml version="1.0" encoding="utf-8"?>
<svg version="1.1" xmlns="http://www.w3.org/2000/svg" width="1024" height="1024" xmlns:bx="https://boxy-svg.com" viewBox="0 0 5602 1000" preserveAspectRatio="xMinYMin">
  <defs>
    <bx:export>
      <bx:file format="svg" path="merlionbot.svg"/>
    </bx:export>
  </defs>
  <g transform="translate(1024,0) scale(-1,1)">
    <path d="M 504.376 144.815 C 506.467 144.813 508.557 144.794 510.648 144.775 C 523.32 144.721 535.638 146.057 547.938 149.25 C 548.78 149.467 549.622 149.684 550.489 149.907 C 570.239 155.152 587.333 163.852 603 177 C 604.007 177.83 605.014 178.66 606.051 179.516 C 633.248 203.08 645.803 237.965 648.448 273.135 C 649.019 282.265 649.29 291.396 649.516 300.539 C 649.537 301.375 649.558 302.21 649.58 303.071 C 650.128 324.941 650.324 346.815 650.526 368.69 C 650.727 395.605 650.727 395.605 651.469 422.508 C 651.506 423.455 651.543 424.402 651.582 425.378 C 651.847 431.277 652.354 437.131 653 443 C 648.377 441.679 644.699 440.111 641 437 C 637.862 429.38 637.867 420.534 637.719 412.374 C 637.701 411.56 637.683 410.745 637.664 409.906 C 637.605 407.224 637.553 404.542 637.5 401.859 C 637.46 399.953 637.419 398.046 637.378 396.139 C 637.292 392.1 637.209 388.061 637.127 384.022 C 637.022 378.783 636.911 373.543 636.798 368.303 C 636.393 349.467 636 330.632 635.754 311.793 C 635.719 309.369 635.685 306.946 635.65 304.522 C 635.591 300.298 635.548 296.074 635.518 291.849 C 635.094 253.89 622.957 218.146 596.625 190.25 C 569.58 164.686 537.983 154.852 501.413 155.821 C 493.992 156.21 487.069 157.783 480 160 C 479.299 160.214 478.598 160.429 477.876 160.649 C 461.351 165.807 446.275 173.254 432 183 C 431.01 183.66 430.02 184.32 429 185 C 431.5 185.028 434 185.047 436.5 185.062 C 437.177 185.071 437.854 185.079 438.551 185.088 C 443.536 185.11 448.464 184.849 453.438 184.5 C 462.462 183.882 471.459 183.887 480.5 183.937 C 482.113 183.943 483.727 183.947 485.34 183.951 C 489.227 183.962 493.113 183.979 497 184 C 499.123 195.986 499.278 207.779 499.206 219.925 C 499.187 223.126 499.185 226.327 499.186 229.527 C 499.133 261.452 492.785 288.465 471 313 C 470.568 313.492 470.136 313.985 469.69 314.492 C 459.538 326.028 448.159 335.664 436 345 C 435.217 345.603 434.433 346.205 433.626 346.826 C 421.984 355.771 410.239 364.567 398.396 373.243 C 395.872 375.094 393.354 376.95 390.836 378.809 C 389.985 379.437 389.133 380.065 388.256 380.712 C 386.639 381.907 385.021 383.101 383.404 384.295 C 378.963 387.57 374.498 390.805 370 394 C 366.219 392.47 364.148 390.181 361.5 387.125 C 360.006 385.411 358.506 383.703 357 382 C 356.41 381.3 355.819 380.599 355.211 379.877 C 352.432 377.518 351.014 377.487 347.405 377.454 C 346.284 377.434 345.164 377.415 344.009 377.394 C 342.202 377.393 342.202 377.393 340.359 377.391 C 339.122 377.374 337.885 377.358 336.61 377.341 C 333.328 377.3 330.048 377.277 326.766 377.262 C 323.414 377.242 320.063 377.2 316.711 377.16 C 310.141 377.086 303.571 377.035 297 377 C 296.663 374.105 296.33 371.209 296 368.312 C 295.905 367.496 295.809 366.679 295.711 365.838 C 295.261 361.871 294.87 358 295 354 C 301.473 353.719 307.944 353.528 314.421 353.396 C 316.62 353.341 318.817 353.266 321.014 353.17 C 341.253 352.31 341.253 352.31 347.898 357.935 C 350.144 360.167 352.092 362.47 354 365 C 355.062 366.285 355.062 366.285 357.52 366.133 C 370.433 366.389 370.433 366.389 383 364 C 382.432 363.443 381.863 362.886 381.277 362.312 C 377.651 358.728 374.078 355.169 370.813 351.25 C 365.439 344.983 359.167 339.474 353 334 C 352.58 333.498 352.16 332.997 351.727 332.48 C 348.997 329.565 346.975 328.153 342.972 327.526 C 339.877 327.444 336.807 327.459 333.713 327.578 C 331.63 327.654 329.55 327.685 327.465 327.704 C 321.546 327.765 315.63 327.888 309.714 328.078 C 283.335 328.885 283.335 328.885 277.872 324.184 C 275.2 321.12 273.594 317.733 272 314 C 270.974 312.638 269.918 311.298 268.813 310 C 267 307 267 307 267.172 304.773 C 268.236 301.209 269.798 297.951 271.438 294.625 C 272.066 293.349 272.69 292.07 273.309 290.789 C 273.585 290.229 273.861 289.669 274.146 289.092 C 275.346 286.151 276.127 283.054 277 280 C 271.72 280.99 266.44 281.98 261 283 C 259.926 278.704 259.927 275.398 260 271 C 268.764 266 278.005 262.737 287.493 259.4 C 294.545 256.911 301.47 254.242 308.353 251.322 C 313.348 249.217 318.391 247.474 323.582 245.922 C 326.124 244.953 327.861 243.652 330 242 C 330.66 242 331.32 242 332 242 C 332.266 240.903 332.531 239.806 332.805 238.676 C 333.161 237.221 333.518 235.767 333.875 234.312 C 334.136 233.231 334.136 233.231 334.402 232.127 C 334.576 231.421 334.75 230.715 334.93 229.988 C 335.087 229.344 335.244 228.7 335.406 228.036 C 337.31 221.512 337.31 221.512 339.825 219.646 C 340.586 219.299 341.348 218.952 342.133 218.594 C 343.03 218.181 343.928 217.769 344.853 217.344 C 351.163 214.65 357.505 212.048 363.875 209.5 C 365.27 208.939 366.664 208.378 368.059 207.816 C 368.742 207.541 369.426 207.266 370.13 206.983 C 371.489 206.435 372.848 205.885 374.207 205.333 C 377.283 204.085 380.36 202.865 383.468 201.698 C 389.696 199.299 393.898 197.042 398.063 191.812 C 399.061 190.654 400.064 189.499 401.07 188.348 C 401.559 187.781 402.048 187.214 402.552 186.629 C 423.233 163.361 453.883 150.78 484 146 C 485.098 145.823 486.196 145.647 487.327 145.465 C 493.001 144.747 498.667 144.814 504.376 144.815 Z M 525 185 C 545.287 189.908 560.67 201.788 572.016 219.07 C 590.343 249.22 593.846 287.33 585.605 321.301 C 576.145 356.402 554.58 382.778 528.07 406.637 C 521.42 412.637 515.03 418.864 508.688 425.188 C 507.839 426.031 506.991 426.875 506.116 427.745 C 505.298 428.565 504.48 429.385 503.637 430.23 C 502.549 431.319 502.549 431.319 501.44 432.43 C 499.547 434.424 497.758 436.439 495.974 438.526 C 490.861 444.405 485.297 449.847 479.785 455.348 C 478.603 456.53 477.422 457.712 476.241 458.895 C 473.775 461.362 471.308 463.827 468.84 466.29 C 465.695 469.429 462.555 472.573 459.417 475.717 C 456.981 478.157 454.543 480.593 452.104 483.03 C 450.946 484.187 449.789 485.345 448.632 486.504 C 443.176 491.969 437.713 497.361 431.839 502.384 C 428.423 505.386 425.257 508.641 422.063 511.875 C 421.338 512.603 420.614 513.331 419.867 514.082 C 417.576 516.385 415.287 518.692 413 521 C 409.982 524.045 406.961 527.086 403.938 530.125 C 403.26 530.811 402.583 531.496 401.885 532.203 C 397.961 536.147 393.929 539.893 389.702 543.511 C 387.56 545.385 385.626 547.417 383.688 549.5 C 379.07 554.182 373.927 558.102 368 561 C 367.34 560.67 366.68 560.34 366 560 C 368.484 547.994 378.539 539.159 387.089 530.912 C 388.852 529.148 390.464 527.336 392.074 525.434 C 396.187 520.701 400.594 516.292 405.045 511.88 C 406.537 510.401 408.026 508.918 409.514 507.435 C 413.207 503.756 416.905 500.081 420.604 496.407 C 423.741 493.29 426.876 490.17 430.008 487.048 C 431.461 485.601 432.917 484.158 434.373 482.715 C 438.926 478.178 443.355 473.605 447.521 468.709 C 450.024 465.817 452.725 463.13 455.438 460.438 C 455.959 459.912 456.48 459.387 457.018 458.846 C 459.84 456.03 462.73 453.344 465.756 450.748 C 469.769 447.25 473.544 443.569 477.281 439.781 C 477.939 439.12 478.597 438.458 479.275 437.776 C 481.352 435.687 483.427 433.594 485.5 431.5 C 488.237 428.737 490.977 425.977 493.719 423.219 C 494.636 422.289 494.636 422.289 495.572 421.34 C 499.303 417.589 503.166 414.06 507.169 410.602 C 509.504 408.559 511.715 406.414 513.91 404.223 C 514.755 403.379 515.6 402.535 516.471 401.666 C 517.754 400.377 517.754 400.377 519.063 399.063 C 519.922 398.207 520.781 397.352 521.666 396.471 C 526.116 392.014 530.42 387.493 534.523 382.714 C 536.393 380.544 538.355 378.466 540.313 376.375 C 564.518 349.379 576.912 316.196 575 280 C 572.79 253.12 563.908 228.9 543.422 210.711 C 538.459 206.669 533.247 203.01 527.934 199.445 C 526 198 526 198 525 196 C 524.93 194.126 524.916 192.25 524.938 190.375 C 524.947 189.372 524.956 188.369 524.965 187.336 C 524.982 186.18 524.982 186.18 525 185 Z M 526 242 C 529.167 244.612 530.21 247.581 531.625 251.375 C 532.05 252.496 532.476 253.618 532.914 254.773 C 537.692 268.97 536.001 286.8 532 301 C 531.807 301.694 531.613 302.387 531.414 303.102 C 526.795 319.265 520.153 334.122 508 346 C 506.921 347.131 506.921 347.131 505.82 348.285 C 501.12 353.162 496.103 357.453 490.82 361.684 C 487.956 364.036 485.225 366.488 482.5 369 C 477.695 373.412 472.732 377.561 467.655 381.654 C 465.742 383.21 463.845 384.783 461.949 386.359 C 455.582 391.647 449.231 396.906 442.563 401.813 C 437.946 405.215 433.707 408.869 429.492 412.754 C 426.916 415.076 424.263 417.261 421.563 419.438 C 417.759 422.513 414.099 425.688 410.5 429 C 406.03 433.114 401.41 436.971 396.684 440.785 C 394.053 442.956 391.521 445.202 389 447.5 C 384.7 451.419 380.241 455.092 375.719 458.75 C 372.219 461.646 368.879 464.698 365.523 467.758 C 362.949 470.045 360.307 472.215 357.625 474.375 C 352.564 478.47 347.781 482.792 343.02 487.227 C 340.752 489.33 338.439 491.373 336.105 493.402 C 332.164 496.838 328.314 500.36 324.5 503.938 C 323.826 504.569 323.152 505.201 322.457 505.852 C 314.804 513.066 307.388 520.516 300 528 C 298.537 522.562 298.758 517.493 300 512 C 301.856 508.787 304.293 506.51 307 504 C 307.759 503.21 308.519 502.42 309.301 501.605 C 314.281 496.435 319.533 491.834 325.137 487.355 C 328.253 484.792 331.228 482.115 334.188 479.375 C 334.953 478.666 334.953 478.666 335.734 477.943 C 336.231 477.484 336.727 477.024 337.238 476.551 C 341.788 472.349 346.464 468.306 351.18 464.293 C 356.937 459.389 362.646 454.461 368.188 449.313 C 372.735 445.089 377.451 441.137 382.285 437.246 C 385.107 434.912 387.806 432.48 390.5 430 C 394.89 425.964 399.412 422.16 404.051 418.414 C 407.414 415.661 410.709 412.838 414 410 C 418.203 406.376 422.435 402.804 426.75 399.313 C 430.204 396.512 433.538 393.633 436.813 390.625 C 440.659 387.118 444.639 383.872 448.75 380.688 C 455.434 375.506 461.856 370.064 468.241 364.521 C 470.01 362.991 471.788 361.474 473.57 359.961 C 480.295 354.247 486.941 348.466 493.387 342.438 C 494.909 341.018 496.446 339.613 498.02 338.25 C 520.481 317.969 521.707 280.429 524.404 252.468 C 524.755 248.926 525.229 245.475 526 242 Z M 537 467 C 537.33 467 537.66 467 538 467 C 538.425 469.34 538.727 471.639 539 474 C 539.225 475.284 539.225 475.284 539.455 476.593 C 539.976 481.608 539.78 484.822 536.95 489.097 C 534.002 492.525 530.72 495.604 527.434 498.703 C 526.237 499.875 525.043 501.049 523.852 502.226 C 520.719 505.308 517.552 508.353 514.376 511.39 C 511.167 514.469 507.99 517.579 504.811 520.688 C 501.226 524.192 497.64 527.694 494.026 531.168 C 489.082 535.929 484.269 540.703 479.821 545.94 C 476.146 550.097 472.152 553.955 468.214 557.861 C 466.588 559.475 464.965 561.091 463.342 562.709 C 459.315 566.722 455.283 570.731 451.251 574.739 C 447.832 578.138 444.415 581.539 441.001 584.943 C 439.415 586.523 437.826 588.099 436.237 589.676 C 435.249 590.66 434.261 591.644 433.273 592.629 C 432.422 593.475 431.57 594.322 430.693 595.194 C 428.606 597.368 426.624 599.564 424.656 601.843 C 421.016 606.036 417.164 609.97 413.229 613.885 C 412.115 614.998 412.115 614.998 410.979 616.135 C 408.552 618.561 406.122 620.984 403.691 623.406 C 401.997 625.099 400.303 626.791 398.61 628.484 C 394.171 632.918 389.73 637.349 385.289 641.78 C 380.749 646.31 376.211 650.843 371.674 655.375 C 362.785 664.253 353.894 673.128 345 682 C 343.322 675.965 344.696 670.748 347 665 C 350.334 659.809 354.696 655.388 359 651 C 359.913 650.068 360.825 649.136 361.766 648.176 C 363.345 646.594 364.938 645.025 366.551 643.477 C 368.51 641.495 370.312 639.496 372.12 637.382 C 376.066 632.857 380.264 628.627 384.531 624.406 C 385.326 623.615 386.121 622.824 386.94 622.009 C 390.305 618.66 393.677 615.316 397.048 611.972 C 399.524 609.515 401.996 607.054 404.469 604.594 C 405.596 603.479 405.596 603.479 406.745 602.342 C 410.822 598.284 414.702 594.128 418.455 589.769 C 420.41 587.53 422.475 585.428 424.594 583.344 C 425.397 582.548 426.2 581.753 427.027 580.934 C 428.676 579.311 430.324 577.689 431.973 576.066 C 432.776 575.271 433.579 574.476 434.406 573.656 C 435.478 572.601 435.478 572.601 436.572 571.525 C 438.563 569.454 440.446 567.35 442.322 565.178 C 445.86 561.105 449.6 557.288 453.438 553.5 C 454.121 552.82 454.805 552.14 455.51 551.439 C 458.397 548.568 461.291 545.702 464.185 542.836 C 466.313 540.726 468.438 538.613 470.563 536.5 C 471.204 535.866 471.846 535.233 472.508 534.58 C 476.326 530.782 479.925 526.857 483.444 522.781 C 485.268 520.694 487.178 518.723 489.156 516.781 C 489.869 516.076 490.582 515.371 491.316 514.645 C 492.772 513.215 494.228 511.785 495.684 510.355 C 498.968 507.107 502.173 503.858 505.164 500.336 C 510.688 493.914 516.856 488.077 522.875 482.125 C 525.334 479.693 527.789 477.258 530.242 474.82 C 531.087 473.988 531.087 473.988 531.95 473.138 C 534.834 470.343 534.834 470.343 537 467 Z M 383 718 C 404.21 717.79 425.42 717.631 446.631 717.534 C 456.48 717.487 466.328 717.424 476.177 717.321 C 484.764 717.231 493.35 717.173 501.938 717.153 C 506.483 717.141 511.026 717.114 515.571 717.048 C 519.854 716.987 524.135 716.969 528.419 716.982 C 529.986 716.98 531.552 716.962 533.118 716.927 C 540.926 716.763 546.76 716.981 552.887 722.376 C 555.24 724.83 557.112 727.168 559 730 C 520.425 732.483 482.102 733.433 443.444 733.264 C 438.058 733.245 432.671 733.241 427.285 733.238 C 420.825 733.233 414.366 733.218 407.906 733.203 C 406.689 733.201 405.471 733.199 404.217 733.197 C 400.825 733.191 397.433 733.177 394.041 733.161 C 392.526 733.159 392.526 733.159 390.98 733.158 C 390.068 733.152 389.156 733.146 388.216 733.14 C 387.421 733.137 386.626 733.134 385.807 733.131 C 384 733 384 733 383 732 C 382.927 729.647 382.916 727.292 382.938 724.938 C 382.947 723.647 382.956 722.357 382.965 721.027 C 382.976 720.028 382.988 719.029 383 718 Z M 423 773 C 434.301 772.814 445.601 772.672 456.903 772.586 C 462.152 772.544 467.4 772.487 472.648 772.396 C 477.718 772.309 482.788 772.262 487.859 772.241 C 489.788 772.226 491.717 772.198 493.645 772.154 C 510.631 771.788 510.631 771.788 517.077 776.799 C 519.677 779.319 521.975 781.995 524 785 C 524 785.66 524 786.32 524 787 C 490.67 787 457.34 787 423 787 C 423 782.38 423 777.76 423 773 Z M 487 664 C 495.745 663.864 504.49 663.754 513.236 663.689 C 517.297 663.658 521.358 663.616 525.419 663.547 C 529.342 663.482 533.264 663.446 537.187 663.431 C 538.681 663.42 540.174 663.398 541.667 663.366 C 554.816 663.091 554.816 663.091 559.097 666.474 C 562.575 670.233 565.35 674.632 568 679 C 560.835 679.024 553.67 679.041 546.505 679.052 C 543.175 679.057 539.845 679.064 536.515 679.075 C 519.979 679.129 503.513 678.903 487 678 C 487 673.38 487 668.76 487 664 Z M 468 611 C 491.1 611 514.2 611 538 611 C 546 625 546 625 546 626 C 538.873 626.387 531.744 626.649 524.609 626.858 C 521.254 626.957 517.901 627.079 514.547 627.208 C 509.61 627.394 504.674 627.521 499.734 627.617 C 497.749 627.664 495.763 627.729 493.778 627.812 C 477.803 628.458 477.803 628.458 473.447 624.936 C 471.797 622.281 470.85 620.002 470 617 C 469.34 615.02 468.68 613.04 468 611 Z M 809 567 C 811 568 811 568 812.125 571.063 C 814.079 579.158 814.079 579.158 813 583 C 810.777 586.441 808.139 589.429 805.386 592.457 C 803.974 594.029 802.612 595.633 801.258 597.254 C 790.501 610.102 778.972 622.281 767 634 C 765.267 628.296 766.735 623.462 769.414 618.249 C 771.209 615.222 773.081 612.262 775 609.313 C 776.017 607.724 776.017 607.724 777.054 606.103 C 779.016 603.055 781.001 600.024 783 597 C 783.497 596.248 783.994 595.497 784.506 594.722 C 791.366 584.469 799.147 574.536 809 567 Z M 416 664 C 430.52 664 445.04 664 460 664 C 460 668.62 460 673.24 460 678 C 445.48 678 430.96 678 416 678 C 416 673.38 416 668.76 416 664 Z M 474.43 119.469 C 473.604 119.649 472.802 119.825 472 120 C 450.302 124.332 429.497 131.583 410.885 143.746 C 409.933 144.379 409.933 144.379 409 145 C 397.366 152.719 386.977 161.254 378 172 C 372.592 179.133 368.277 183.058 359.52 185.364 C 358.323 185.644 357.162 185.916 356 186.188 C 349.821 187.858 343.671 189.508 337.373 190.667 C 330.09 191.93 322.249 192.802 316 197 C 311.779 202.671 310.376 209.511 309.336 216.39 C 309.222 217.277 309.111 218.139 309 219 C 308.788 220.563 308.579 222.127 308.375 223.691 C 308.248 224.816 308.124 225.908 308 227 C 305.5 227.519 303.309 228.277 300.93 229.232 C 292.111 232.931 283.256 235.859 274.056 238.45 C 259.826 242.444 243.4 245.042 233.625 256.875 C 229.294 265.035 229.294 265.035 235.025 293.338 C 235.293 294.647 235.553 295.917 235.813 297.188 C 238.035 308.395 239.786 320.419 246.705 329.828 C 247.167 330.417 247.615 330.99 248.063 331.563 C 250.394 334.698 252.702 337.775 255.551 340.463 C 257.055 341.767 258.559 343.071 260.063 344.375 C 265.733 349.829 266.373 354.907 266.754 362.367 C 266.933 366.503 267.417 370.534 268.043 374.625 C 268.177 375.475 268.307 376.3 268.438 377.125 C 268.607 378.32 268.607 378.32 268.773 379.492 C 268.892 380.263 269.006 381.01 269.121 381.758 C 270.314 389.748 274.686 397.476 280.197 403.298 C 285.495 407.797 285.495 407.797 304.154 406.969 C 307.321 406.812 310.488 406.684 313.658 406.576 C 315.685 406.538 317.712 406.498 319.738 406.457 C 323.307 406.229 326.541 405.997 330 407 C 333.754 410.318 335.836 414.552 338 419 C 329.001 426.236 319.948 433.406 310.813 440.469 C 309.234 441.684 309.234 441.684 307.688 442.875 C 304.778 445.118 301.863 447.354 298.922 449.556 C 292.036 454.7 285.04 459.744 278.813 465.688 C 267.44 477.808 265.526 491.555 265.652 507.624 C 265.666 509.199 265.673 510.773 265.676 512.348 C 265.678 515.697 265.683 519.047 265.702 522.396 C 265.73 526.666 265.754 530.936 265.76 535.207 C 265.782 555.493 266.044 575.733 267 596 C 269 596 269 596 271.336 594.227 C 272.242 593.47 273.121 592.735 274 592 C 279.31 587.85 284.475 583.627 289.438 579.063 C 292.154 576.56 294.873 574.105 297.719 571.75 C 302.625 567.802 307.392 563.789 312 559.5 C 314.918 556.781 317.848 554.126 320.922 551.582 C 325.363 548.018 329.661 544.471 333.688 540.438 C 334.814 539.269 335.907 538.134 337 537 C 337 543.8 337 550.4 337 557 C 336.32 557 335.66 557 335 557 C 333.666 558.247 332.34 559.504 331.064 560.81 C 326.665 565.388 322.211 569.751 317.375 573.875 C 311.61 578.633 310.841 584.128 309.869 591.236 C 309.747 592.179 309.629 593.093 309.512 594.008 C 308.151 604.33 306.997 614.666 306.063 625.036 C 305.978 626.001 305.895 626.938 305.813 627.875 C 304.529 642.341 303.646 656.747 303.624 671.274 C 303.624 672.137 303.625 672.975 303.625 673.813 C 303.595 687.94 304.272 702.025 307.291 715.876 C 307.447 716.534 307.599 717.173 307.75 717.813 C 308.284 720.1 308.832 722.383 309.404 724.661 C 309.607 725.456 309.803 726.228 310 727 C 317.18 755.732 332.005 782.588 349.668 806.228 C 350.121 806.83 350.561 807.415 351 808 C 370.541 834.378 398.655 857.296 427.893 871.957 C 428.609 872.312 429.305 872.656 430 873 C 451.326 883.558 473.993 891.357 497.436 895.56 C 498.308 895.709 499.154 895.855 500 896 C 524.294 900.239 551.566 899.723 575.799 895.41 C 576.548 895.271 577.274 895.135 578 895 C 581.239 894.4 584.418 893.74 587.609 892.926 C 588.762 892.611 589.881 892.306 591 892 C 624.921 883.189 656.488 868.665 684.297 847.148 C 685.662 846.063 685.662 846.063 687 845 C 692.92 840.344 698.661 835.629 703.91 830.219 C 704.966 829.098 704.966 829.098 706 828 C 709.271 824.529 712.507 821.034 715.685 817.478 C 716.132 816.975 716.566 816.488 717 816 C 755.309 773.089 776.284 714.984 775.105 657.699 C 775.07 656.781 775.035 655.891 775 655 C 800.588 649.594 828.938 633.52 845.992 613.445 C 846.675 612.614 847.337 611.807 848 611 C 874.71 580.133 882.021 540.756 881 501 C 859.813 500.818 839.483 501.819 819.125 508.313 C 788.471 519.332 763.437 539.56 749.215 569.359 C 748.601 570.693 748.601 570.693 748 572 C 744.981 564.298 741.249 557.087 736.875 550.063 C 717.691 520.128 684.009 507.526 651.035 499.885 C 643.12 498.053 635.268 496.012 627.418 493.918 C 625.692 493.454 625.692 493.454 624 493 C 622 496 622 496 621.367 499.711 C 617.315 535.246 622.253 568.181 643.402 597.746 C 659.098 618.034 684.925 637.894 710.961 641.656 C 711.994 641.773 712.997 641.887 714 642 C 713.154 652.612 712.368 663.186 709.898 673.566 C 709.593 674.734 709.296 675.867 709 677 C 703.318 699.183 694.477 720.802 678.875 737.938 C 676.817 740.015 675.169 741.693 673.758 744.254 C 673.375 745.136 673.375 745.136 673 746 C 671 746 671 746 668.738 748.176 C 667.355 749.602 667.355 749.602 666 751 C 644.479 770.761 616.048 786.047 586.216 786.263 C 582.661 785.841 580.572 784.579 578.078 782.055 C 577.457 781.314 576.853 780.594 576.25 779.875 C 575.16 778.589 574.075 777.299 573 776 C 597.536 772.783 618.484 767.309 639.375 753.84 C 666.649 735.603 690.317 705.749 697 673 C 671.738 667.102 648.383 656.953 629.438 638.813 C 595.452 603.171 593.332 559.632 593.753 512.859 C 593.834 504.169 593.882 495.48 593.924 486.79 C 593.939 483.727 593.956 480.664 593.983 477.601 C 594.093 466.005 593.949 454.467 593.382 442.882 C 593.013 435.512 592.75 428.147 592.668 420.768 C 592.656 419.283 592.642 417.798 592.625 416.313 C 592.352 405.379 592.676 396.934 598 387 C 599.671 390.185 599.671 390.185 599.773 394.005 C 599.961 395.746 600.155 397.487 600.354 399.227 C 600.678 402.047 600.997 404.867 601.313 407.688 C 603.38 426.659 605.307 444.629 618.883 459.199 C 642.092 482.608 674.882 484.335 706 485 C 706.34 484.32 706.67 483.66 707 483 C 705.993 482.049 704.995 481.089 704 480.125 C 677.513 425.578 677.513 425.578 680.477 362.013 C 680.419 351.947 680.349 341.881 680.272 331.816 C 680.259 330.181 680.259 330.181 680.246 328.578 C 680.04 301.927 680.612 274.45 675.676 248.148 C 675.446 247.078 675.223 246.039 675 245 C 670.047 221.634 661.546 199.718 647.02 180.578 C 646.333 179.702 645.666 178.851 645 178 C 640.599 172.24 636.068 166.877 630.75 161.938 C 588.575 124.954 529.968 107.572 474.43 119.469 Z" style=""/>
    <path d="M0 0 C18.48 0 36.96 0 56 0 C54.35 1.65 52.7 3.3 51 5 C49.98215119 6.02773379 48.9650838 7.05624282 47.94921875 8.0859375 C45.71135044 10.35177064 43.45006455 12.59107079 41.17578125 14.8203125 C39.34544978 16.62041247 37.68244725 18.38410572 36.04296875 20.3671875 C32.45283557 24.41975001 29.28157999 25.37788316 23.88452148 25.8215332 C19.58792929 26.03049003 15.30066192 26.02193096 11 26 C8.80858419 26.01129767 6.61717705 26.02438726 4.42578125 26.0390625 C-1.3832766 26.06676121 -7.19111057 26.04847578 -13 26 C-12.64808594 25.37996094 -12.29617188 24.75992187 -11.93359375 24.12109375 C-7.51726311 16.19937272 -3.86676303 8.28592077 0 0 Z " transform="translate(357,237)" style=""/>
  </g>
  <text style="font-family: Osaka; font-size: 806.9px; font-weight: 700; white-space: pre;" x="950.574" y="852.002">merlion.bot</text>
</svg>