<?xml version="1.0" encoding="utf-8"?>
<svg version="1.1" xmlns="http://www.w3.org/2000/svg" width="580px" height="100px" viewBox="0 0 580 100" xmlns:bx="https://boxy-svg.com">
  <g transform="matrix(0.23942, 0, 0, 0.23942, 108.88076, -28.187431)" style="">
    <path d="M -301.65 123.894 C -301.25 123.895 -300.84 123.896 -300.42 123.898 C -294.33 123.923 -288.43 124.139 -282.47 125.516 C -281.82 125.662 -281.82 125.662 -281.14 125.81 C -265.48 129.354 -251.67 135.957 -240.38 147.541 C -239.97 147.917 -239.97 147.917 -239.56 148.3 C -235.02 152.573 -231.55 157.762 -228.51 163.173 C -228.3 163.543 -228.09 163.912 -227.88 164.294 C -226.91 166.059 -226.1 167.719 -225.59 169.667 C -224.56 173.293 -223.32 175.267 -220.01 177.227 C -217.44 178.596 -214.83 179.837 -212.19 181.048 C -209.2 182.428 -206.34 184.015 -203.49 185.657 C -202.79 186.054 -202.79 186.054 -202.08 186.459 C -197.01 189.369 -192.06 192.281 -187.52 195.997 C -186.75 196.572 -186.75 196.572 -185.96 197.159 C -183.85 199.13 -182.12 201.494 -181.16 204.239 C -179.6 206.687 -177.26 207.817 -174.79 209.273 C -173.72 209.927 -172.64 210.581 -171.57 211.235 C -170.77 211.717 -170.77 211.717 -169.95 212.209 C -167.88 213.465 -165.83 214.762 -163.78 216.064 C -153.83 222.366 -153.83 222.366 -143.78 228.522 C -143.32 228.797 -143.32 228.797 -142.86 229.078 C -141.38 229.966 -139.91 230.852 -138.43 231.734 C -123.51 240.705 -123.51 240.705 -120.95 248.368 C -120.41 252.683 -121.62 256.499 -124.21 259.954 C -125.14 261.16 -126.11 262.337 -127.09 263.509 C -128.96 265.832 -129.37 267.081 -129.46 270.057 C -129.91 277.373 -132.06 283.4 -137.01 288.809 C -138.31 290.298 -138.15 291.589 -138.17 293.511 C -138.36 305.04 -139.32 314.196 -147.88 322.765 C -148.19 323.083 -148.5 323.401 -148.82 323.728 C -152.43 327.148 -157.42 329.723 -162.38 330.321 C -165.28 330.228 -167.79 328.842 -170.39 327.66 C -181.4 322.68 -192.96 319.853 -204.65 316.892 C -204.49 317.482 -204.34 318.073 -204.17 318.681 C -202.43 326.568 -203.07 335.684 -205.63 343.322 C -205.78 343.785 -205.78 343.785 -205.94 344.258 C -210.12 356.572 -218.38 364.615 -228.63 372.2 C -228.96 372.038 -229.28 371.877 -229.61 371.71 C -229.48 371.332 -229.48 371.332 -229.34 370.945 C -225.79 360.99 -223.52 351.74 -223.5 341.15 C -223.49 340.596 -223.49 340.596 -223.49 340.032 C -223.47 333.031 -224.25 326.277 -226.98 319.767 C -227.15 319.357 -227.32 318.946 -227.49 318.524 C -235.02 300.858 -250.78 292.16 -266.96 283.548 C -282.88 275.071 -298.55 264.606 -304.58 246.674 C -304.92 245.448 -305.23 244.23 -305.48 242.984 C -306.1 254.261 -301.4 264.049 -294.04 272.382 C -293.29 273.191 -292.53 273.997 -291.77 274.799 C -291.28 275.342 -291.28 275.342 -290.77 275.896 C -285.61 281.349 -279.08 285.256 -272.79 289.273 C -254.39 301.087 -236.86 315.162 -231.57 337.449 C -230.63 341.829 -230.42 346.1 -230.44 350.572 C -230.44 350.896 -230.44 351.221 -230.44 351.555 C -230.47 356.361 -230.71 360.718 -232.06 365.348 C -232.27 366.125 -232.47 366.903 -232.67 367.682 C -234.99 376.205 -238.93 383.48 -243.81 390.799 C -244.02 391.125 -244.24 391.451 -244.47 391.787 C -245.03 392.619 -245.64 393.424 -246.25 394.225 C -246.58 394.225 -246.9 394.225 -247.23 394.225 C -247.2 393.946 -247.18 393.667 -247.14 393.379 C -244.99 372.411 -245.76 352.038 -259.36 334.827 C -260.83 333.084 -262.33 331.379 -263.88 329.703 C -264.66 328.849 -265.39 327.986 -266.11 327.078 C -267.34 325.66 -268.62 324.474 -270.05 323.264 C -270.88 322.562 -271.7 321.844 -272.5 321.119 C -279.28 315.148 -286.98 310.399 -294.59 305.573 C -301.55 301.152 -308.28 296.623 -314.29 290.951 C -314.95 290.387 -315.61 289.826 -316.28 289.268 C -324.54 282.011 -330.74 272.098 -333.87 261.584 C -334.02 261.074 -334.18 260.564 -334.34 260.038 C -336.69 250.716 -336.21 239.905 -333.38 230.748 C -333.2 230.119 -333.02 229.489 -332.84 228.861 C -331.4 224.163 -329.31 219.904 -327.01 215.575 C -327.18 215.575 -327.34 215.575 -327.5 215.575 C -338.68 228.524 -343.43 244.178 -342.68 261.094 C -341.5 276.365 -332.46 290.445 -321.26 300.477 C -319.94 301.574 -318.59 302.629 -317.23 303.676 C -316.77 304.045 -316.31 304.413 -315.84 304.793 C -310.64 308.911 -305.07 312.486 -299.53 316.112 C -279.51 329.205 -262.34 345.315 -256.99 369.546 C -256.03 374.304 -255.5 379.04 -255.45 383.889 C -255.44 384.711 -255.42 385.534 -255.41 386.355 C -255.39 387.624 -255.37 388.894 -255.36 390.163 C -255.21 403.358 -251.98 414.632 -242.34 424.082 C -234.96 431.098 -224.56 434.065 -214.56 433.976 C -204.56 433.599 -195.58 430.307 -188.21 423.414 C -181.02 415.556 -177.76 405.423 -178.08 394.892 C -178.57 385.636 -182.65 376.541 -189.48 370.242 C -194.03 366.674 -198.63 364.888 -204.16 363.39 C -205.14 363.07 -206.12 362.747 -207.1 362.411 C -201.41 355.262 -193.52 351.457 -184.58 350.174 C -176.11 349.38 -167.6 351.495 -160.9 356.822 C -155.15 361.71 -151.7 367.564 -149.34 374.647 C -149.13 374.068 -148.92 373.489 -148.7 372.892 C -145.55 364.486 -141.27 358.208 -135.15 351.643 C -134.82 351.28 -134.49 350.917 -134.15 350.543 C -125.59 341.518 -114.3 336.964 -103.02 332.33 C -92.669 328.07 -83.097 323.654 -74.457 316.402 C -74.158 316.174 -73.859 315.947 -73.551 315.712 C -67.028 310.604 -63.807 303.053 -62.821 295.021 C -62.784 294.647 -62.748 294.273 -62.71 293.887 C -61.058 295.801 -59.927 297.753 -58.825 300.006 C -58.655 300.354 -58.484 300.702 -58.308 301.06 C -49.191 319.93 -49.6 341.169 -56.297 360.755 C -59.444 369.562 -63.897 377.504 -69.563 384.926 C -69.873 385.346 -70.185 385.767 -70.505 386.201 C -75.469 392.617 -81.578 398.611 -87.976 403.587 C -89.692 404.937 -91.288 406.41 -92.899 407.88 C -93.885 408.773 -94.887 409.638 -95.901 410.5 C -100.61 414.618 -104.9 419.127 -108.72 424.082 C -109 424.445 -109.28 424.809 -109.57 425.184 C -113.23 429.912 -116.82 434.68 -120.25 439.584 C -124.51 445.677 -128.88 451.687 -133.68 457.365 C -134.08 457.853 -134.49 458.341 -134.9 458.844 C -140.97 466.148 -147.48 473.246 -154.73 479.39 C -155.18 479.786 -155.64 480.182 -156.11 480.591 C -182.98 503.816 -216.79 518.104 -252.13 521.483 C -252.84 521.552 -252.84 521.552 -253.56 521.622 C -258.22 522.032 -262.87 522.091 -267.55 522.095 C -267.96 522.095 -268.38 522.096 -268.81 522.096 C -276.54 522.09 -284.11 521.598 -291.77 520.504 C -292.27 520.433 -292.77 520.362 -293.28 520.29 C -331.88 514.573 -367.2 495.884 -394.74 468.5 C -395.06 468.182 -395.38 467.863 -395.71 467.536 C -428.89 434.247 -444.67 388.339 -444.6 342.017 C -444.41 297.932 -425.97 259.603 -399.45 225.364 C -398.94 224.698 -398.43 224.032 -397.92 223.366 C -395.64 220.422 -393.3 217.565 -390.77 214.829 C -389.85 213.818 -388.95 212.793 -388.05 211.757 C -383.32 206.338 -378.18 201.358 -372.38 197.094 C -371.57 196.497 -370.77 195.887 -369.97 195.276 C -362.2 189.442 -353.74 185.128 -344.63 181.803 C -366.51 186.446 -385.22 202.102 -400.58 217.556 C -401.6 218.579 -402.62 219.596 -403.65 220.613 C -407.21 224.17 -410.54 227.766 -413.65 231.727 C -414.11 232.266 -414.57 232.802 -415.03 233.335 C -422.44 241.836 -428.78 251.313 -434.12 261.236 C -434.41 261.763 -434.41 261.763 -434.7 262.3 C -434.94 262.767 -434.94 262.767 -435.2 263.243 C -435.67 264.031 -435.67 264.031 -436.65 265.01 C -437.29 236.417 -424.9 211.687 -405.66 191.376 C -402.96 188.599 -400.05 186.158 -397.01 183.761 C -396.51 183.361 -396.02 182.961 -395.51 182.55 C -380.11 170.256 -360.26 163.286 -340.72 161.735 C -358.41 156.46 -384.68 165.001 -400.3 172.987 C -400.69 173.186 -401.09 173.387 -401.49 173.593 C -401.83 173.772 -402.17 173.952 -402.52 174.137 C -402.94 174.297 -402.94 174.297 -403.37 174.461 C -403.69 174.299 -404.01 174.138 -404.35 173.972 C -403.96 173.557 -403.58 173.143 -403.18 172.717 C -402.66 172.156 -402.14 171.596 -401.63 171.035 C -401.36 170.743 -401.08 170.451 -400.81 170.15 C -399.4 168.634 -398.03 167.106 -396.7 165.529 C -380.38 146.832 -353.68 135.73 -329.35 133.911 C -323.19 133.571 -316.98 133.591 -310.86 134.326 C -317.36 131.341 -323.97 129.546 -330.93 127.963 C -328.85 126.839 -326.78 126.456 -324.48 126.005 C -324.09 125.924 -323.7 125.844 -323.3 125.76 C -316.1 124.329 -308.97 123.86 -301.65 123.894 Z M -362.97 219.613 C -377.63 235.06 -388.35 255.292 -387.78 277.053 C -387.76 277.618 -387.73 278.166 -387.71 278.714 C -387.54 284.319 -386.53 289.722 -384.89 295.079 C -375.97 322.541 -350.83 337.236 -326.56 349.681 C -306.41 360.009 -288.26 369.795 -274.22 388.101 C -274.03 388.353 -273.85 388.597 -273.66 388.841 C -273.5 388.508 -273.34 388.185 -273.17 387.862 C -273.65 386.484 -273.65 386.484 -275.14 383.155 C -275.46 382.44 -275.79 381.725 -276.11 381.01 C -279.71 372.866 -283.58 365.802 -290.08 359.604 C -290.49 359.227 -290.89 358.861 -291.28 358.495 C -301.71 348.77 -313.61 341.775 -326.07 334.965 C -336.98 328.996 -347.99 322.839 -356.67 313.764 C -357.07 313.329 -357.46 312.908 -357.85 312.487 C -366.81 303.025 -372.7 292.445 -375.28 279.666 C -375.34 279.343 -375.41 279.029 -375.47 278.714 C -375.69 277.708 -375.89 276.698 -376.08 275.686 C -378.56 257.825 -372.76 239.1 -362.22 224.654 C -361.74 224.024 -361.74 224.024 -361.28 223.406 C -356.36 216.825 -350.82 211.334 -344.58 206.01 C -344.1 205.6 -343.63 205.204 -343.17 204.807 C -343.66 204.559 -343.66 204.559 -344.14 204.317 C -350.97 208.868 -357.26 213.707 -362.97 219.613 Z M -298.7 463.394 C -296.53 468.404 -294.08 471.645 -289.03 473.973 C -285.32 475.14 -280.61 475.273 -277.01 473.596 C -272.67 470.833 -269.09 466.826 -267.79 461.769 C -270.39 463.348 -272.97 464.776 -275.9 465.624 C -283.53 467.279 -290.77 466.359 -297.42 462.38 C -297.78 462.103 -298.3 461.779 -299.12 461.28 C -299.12 462.259 -299.12 462.259 -298.7 463.394 Z M -299.57 433.932 C -299.01 432.865 -299.01 432.865 -298.63 431.913 C -298.69 431.795 -298.74 431.678 -298.8 431.563 C -298.74 431.355 -298.68 431.146 -298.63 430.934 C -298.76 431 -298.89 431.065 -299.02 431.129 C -299.05 431.064 -299.08 430.999 -299.12 430.934 C -299.31 431.126 -299.46 431.281 -299.59 431.416 C -299.6 431.419 -299.6 431.421 -299.61 431.423 C -302.09 432.914 -304.56 434.311 -307.36 435.096 C -315.16 436.323 -322.34 435.221 -329.04 431.035 C -329.35 430.834 -329.65 430.639 -329.95 430.444 C -329.95 431.582 -329.95 431.582 -328.93 433.772 C -328.43 434.816 -327.9 435.784 -327.34 436.678 C -327.07 437.211 -326.8 437.743 -326.52 438.275 C -326.5 438.184 -326.46 438.094 -326.44 438.004 C -324.66 440.392 -322.43 442.158 -319.14 443.338 C -314.9 444.294 -310.32 444.26 -306.46 442.191 C -303.58 440.21 -301.5 437.804 -300.08 434.891 C -299.91 434.566 -299.74 434.249 -299.57 433.932 Z M -326.52 380.52 C -326.52 380.468 -326.52 380.415 -326.52 380.363 C -326.38 380.29 -326.23 380.214 -326.08 380.136 C -321.76 377.619 -318.99 373.605 -317.71 368.773 C -318.05 368.94 -318.37 369.101 -318.69 369.263 C -321.45 370.941 -324.08 372.328 -327.23 373.117 C -334.97 374.686 -342.03 373.071 -348.67 368.857 C -348.96 368.662 -349.24 368.473 -349.53 368.284 C -349.53 369.094 -349.53 369.308 -348.94 370.486 C -348.68 371.298 -348.37 372.089 -347.97 372.907 C -345.49 377.321 -342.59 380.086 -337.73 381.671 C -334.03 382.503 -330.73 382.202 -327.42 380.775 C -327.12 380.69 -326.82 380.605 -326.52 380.52 Z M -295.65 406.595 C -295.68 406.846 -293.25 403.026 -293.49 402.54 C -293.19 401.754 -292.95 400.939 -292.75 400.098 C -295.08 401.649 -297.35 403.072 -300 404.01 C -307.64 406.137 -314.41 404.932 -321.34 401.274 C -322.41 400.697 -323.48 400.145 -324.57 399.609 C -324.26 400.771 -324.26 400.771 -323.59 402.545 C -321.35 407.035 -318.36 410.587 -313.62 412.505 C -309.05 413.639 -304.23 413.106 -300.13 410.866 C -298.34 409.682 -296.84 408.243 -295.65 406.595 Z M -341.38 405.222 C -341.12 404.728 -340.86 404.249 -340.6 403.769 C -339.79 402.316 -339.79 402.316 -339.25 401.077 C -339.31 400.95 -339.38 400.824 -339.44 400.699 C -339.38 400.5 -339.31 400.299 -339.25 400.098 C -339.37 400.184 -339.49 400.268 -339.61 400.351 C -339.66 400.267 -339.7 400.182 -339.74 400.098 C -339.93 400.327 -340.1 400.559 -340.27 400.793 C -342.57 402.29 -344.88 403.371 -347.59 404.146 C -355.52 405.843 -362.93 404.491 -369.71 400.182 C -370.01 399.987 -370.29 399.798 -370.58 399.609 C -370.58 400.856 -370.58 401.044 -370.18 401.947 C -369.73 403.536 -368.93 404.997 -367.95 406.351 C -367.85 406.551 -367.74 406.751 -367.64 406.951 C -367.63 406.907 -367.61 406.866 -367.6 406.825 C -367.17 407.384 -366.71 407.924 -366.24 408.448 C -363.12 411.353 -360.21 412.886 -355.89 413.026 C -355.54 413.03 -355.2 413.034 -354.85 413.038 C -352.12 413.08 -350.03 412.586 -347.57 411.356 C -345.22 410.047 -343.4 408.246 -342 406.129 C -341.83 405.909 -341.65 405.634 -341.38 405.222 Z M -375.47 433.87 C -375.46 433.878 -375.44 433.886 -375.43 433.894 C -373.52 437.942 -370.95 441.359 -366.68 443.262 C -362.48 444.385 -357.24 444.463 -353.37 442.313 C -353.06 442.105 -352.76 441.904 -352.47 441.702 C -350.75 440.562 -347.76 437.69 -347.57 437.786 C -346.18 435.395 -344.9 433.126 -344.15 430.444 C -344.64 430.278 -346.43 431.423 -346.1 431.423 C -348.13 432.773 -350.11 434.03 -352.4 434.88 C -359.62 436.872 -366.88 436.052 -373.45 432.492 C -373.99 432.194 -374.53 431.906 -375.07 431.627 C -375.53 431.388 -375.99 431.157 -376.45 430.934 C -376.45 431.423 -376.45 431.423 -376.05 432.494 C -375.97 432.678 -375.89 432.861 -375.81 433.043 C -375.73 433.265 -375.61 433.53 -375.47 433.87 Z M -344.15 464.216 C -342.32 468.098 -339.9 471.05 -336.16 473.181 C -332.22 474.995 -328.09 475.187 -323.99 473.761 C -318.68 471.303 -316.21 467.348 -313.8 462.259 C -314.13 462.092 -314.45 461.931 -314.78 461.769 C -317.23 463.821 -319.63 464.949 -322.71 465.817 C -330.3 467.277 -337.26 466.045 -343.79 461.853 C -344.22 461.564 -344.22 461.564 -344.63 461.28 C -344.57 462.442 -344.57 462.442 -344.15 464.216 Z M -251.73 181.619 C -259.96 184.668 -266.07 191.263 -270.06 198.981 C -275.17 209.781 -276.52 222.225 -272.69 233.684 C -267.34 247.405 -256.56 253.776 -243.81 259.625 C -234.26 263.999 -223.68 268.81 -216.39 276.613 C -216.06 276.994 -215.74 277.365 -215.42 277.735 C -212.42 281.197 -209.86 284.663 -207.77 288.748 C -201.78 300.517 -194.35 306.055 -182.14 310.809 C -180.59 311.411 -179.04 312.016 -177.49 312.627 C -176.91 312.857 -176.91 312.857 -176.34 313.083 C -173.32 314.275 -170.43 315.612 -167.56 317.121 C -165.84 318.063 -164.41 318.816 -162.42 318.99 C -158.84 318.611 -155.42 316.056 -153.04 313.444 C -148.21 307.36 -146.8 300.515 -147.39 292.908 C -148.41 291.88 -148.41 291.88 -163.41 291.815 C -164.77 291.812 -166.12 291.807 -167.47 291.792 C -171.6 291.745 -175.63 291.617 -179.66 292.665 C -182.16 293.464 -184.42 293.554 -187.03 293.398 C -187.19 290.935 -187.43 288.773 -186.27 286.545 C -184.33 284.955 -182.43 284.186 -179.97 283.909 C -179.37 283.907 -178.78 283.904 -178.2 283.902 C -177.17 283.891 -176.14 283.882 -175.1 283.882 C -174.37 283.882 -173.63 283.879 -172.9 283.873 C -170.97 283.855 -169.03 283.839 -167.09 283.832 C -163.94 283.82 -160.78 283.805 -157.62 283.778 C -156.51 283.768 -155.4 283.76 -154.28 283.758 C -153.58 283.757 -152.88 283.754 -152.18 283.749 C -151.85 283.746 -151.52 283.744 -151.2 283.741 C -148.24 283.731 -146.35 283.487 -144.14 281.437 C -141.63 278.157 -141.36 273.902 -141.22 269.914 C -141.87 266.64 -144.1 264.208 -146.41 261.913 C -146.86 261.484 -146.86 261.484 -147.29 261.063 C -149.14 259.25 -151 257.463 -152.95 255.771 C -153.93 254.937 -154.89 254.093 -155.83 253.22 C -156.39 252.685 -156.39 252.685 -156.93 252.161 C -157.43 251.679 -157.43 251.679 -157.92 251.205 C -158.8 250.326 -158.8 250.326 -158.64 248.857 C -154.83 248.772 -151.12 248.92 -147.33 249.379 C -142.42 250.007 -137.66 250.436 -132.7 250.326 C -135.38 244.596 -135.38 244.596 -152.51 234.599 C -153.19 234.206 -153.86 233.812 -154.53 233.416 C -155.92 232.601 -157.3 231.787 -158.68 230.976 C -161.13 229.542 -163.58 228.102 -166.02 226.658 C -166.47 226.395 -166.9 226.139 -167.33 225.884 C -169.43 224.645 -171.53 223.406 -173.62 222.15 C -174.06 221.887 -174.48 221.632 -174.91 221.377 C -175.75 220.871 -176.59 220.364 -177.43 219.857 C -179.36 218.678 -181.28 217.487 -183.29 216.447 C -186.57 214.817 -189.99 213.659 -191.25 209.946 C -192.57 204.58 -196.13 201.048 -200.55 197.876 C -214.33 188.418 -234.37 176.745 -251.73 181.619 Z M -302.39 171.769 C -306.02 173.625 -308.73 176.997 -310.07 180.825 C -311.43 187.376 -310.23 193.021 -306.89 198.75 C -302.8 204.857 -297.33 208.087 -290.31 209.701 C -291.07 208.632 -291.86 207.65 -292.76 206.688 C -296.98 202.267 -300.32 197.164 -301.56 191.102 C -301.81 187.772 -302.18 184.426 -300.25 181.558 C -298.51 179.68 -296.93 178.932 -294.37 178.705 C -293.73 178.718 -293.1 178.731 -292.48 178.743 C -289.18 178.783 -286.81 179.057 -283.86 180.568 C -281.64 181.732 -279.44 182.875 -277.09 183.76 C -278.79 178.669 -283.25 174.631 -287.89 172.208 C -292.81 170.087 -297.41 169.744 -302.39 171.769 Z M -333.87 149.988 C -319.55 151.489 -305.67 155.443 -292.88 162.127 C -292.32 162.423 -292.32 162.423 -291.77 162.714 C -284.97 166.268 -278.28 170.282 -272.64 175.541 C -271.47 176.637 -271.47 176.637 -268.28 179.355 C -269.78 175.278 -272.2 171.376 -275.22 168.251 C -291.54 153.045 -312.26 149.06 -333.87 149.498 C -333.87 149.665 -333.87 149.826 -333.87 149.988 Z M -270.17 145.784 C -262.75 150.55 -257 156.609 -251.73 163.631 C -249.98 166.022 -248.19 168.218 -246.06 170.285 C -245.54 170.78 -245.03 171.282 -244.52 171.787 C -243.96 172.353 -243.39 172.917 -242.83 173.482 C -243.55 168.815 -245.64 164.83 -248.08 160.834 C -253.83 152.277 -263.97 144.824 -274.15 142.646 C -272.95 143.914 -271.64 144.835 -270.17 145.784 Z" style="fill: rgb(76, 29, 149);"/>
    <path d="M -201.81 212.77 C -197.42 216.232 -196.25 221.25 -195.26 226.495 C -195.17 226.932 -195.09 227.369 -195 227.819 C -194.37 231.023 -194.37 231.023 -194.37 232.705 C -199.5 231.843 -203.75 229.32 -207.93 226.373 C -211.16 224.116 -214.21 222.618 -217.94 221.387 C -221.85 220.055 -225.5 218.249 -229.19 216.4 C -229.5 216.246 -229.81 216.092 -230.13 215.933 C -235.4 213.305 -235.4 213.305 -235.98 212.148 C -211.06 206.755 -211.06 206.755 -201.81 212.77 Z" style="fill: rgb(76, 29, 149);"/>
  </g>
  <path d="M 112.713 81.983 L 112.713 33.08 L 123.692 33.08 L 123.692 41.434 L 124.305 41.434 C 125.326 38.635 127.017 36.441 129.379 34.851 C 131.741 33.262 134.54 32.467 137.777 32.467 C 141.101 32.467 143.901 33.269 146.175 34.873 C 148.45 36.477 150.039 38.664 150.943 41.434 L 151.468 41.434 C 152.576 38.722 154.413 36.55 156.979 34.917 C 159.546 33.284 162.608 32.467 166.165 32.467 C 170.656 32.467 174.323 33.889 177.166 36.732 C 180.009 39.575 181.431 43.724 181.431 49.177 L 181.431 81.983 L 169.883 81.983 L 169.883 50.926 C 169.883 47.923 169.074 45.714 167.456 44.299 C 165.837 42.885 163.861 42.178 161.529 42.178 C 158.758 42.178 156.6 43.045 155.055 44.781 C 153.509 46.516 152.737 48.739 152.737 51.451 L 152.737 81.983 L 141.364 81.983 L 141.364 50.489 C 141.364 47.952 140.62 45.932 139.133 44.431 C 137.646 42.929 135.677 42.178 133.228 42.178 C 131.566 42.178 130.05 42.601 128.679 43.446 C 127.308 44.292 126.222 45.473 125.42 46.99 C 124.618 48.506 124.217 50.256 124.217 52.238 L 124.217 81.983 L 112.713 81.983 Z M 211.577 82.945 C 206.679 82.945 202.45 81.917 198.892 79.861 C 195.335 77.805 192.601 74.896 190.69 71.135 C 188.78 67.373 187.825 62.941 187.825 57.837 C 187.825 52.793 188.773 48.367 190.669 44.562 C 192.565 40.756 195.232 37.789 198.674 35.661 C 202.115 33.532 206.168 32.467 210.833 32.467 C 213.837 32.467 216.689 32.949 219.385 33.911 C 222.082 34.873 224.473 36.36 226.559 38.372 C 228.643 40.385 230.283 42.943 231.479 46.049 C 232.675 49.155 233.273 52.851 233.273 57.137 L 233.273 60.724 L 193.206 60.724 L 193.206 52.982 L 227.543 52.982 L 222.163 55.257 C 222.163 52.486 221.739 50.073 220.894 48.017 C 220.048 45.962 218.794 44.351 217.133 43.184 C 215.471 42.017 213.401 41.434 210.92 41.434 C 208.442 41.434 206.328 42.017 204.579 43.184 C 202.828 44.351 201.502 45.918 200.598 47.886 C 199.693 49.855 199.241 52.049 199.241 54.469 L 199.241 59.849 C 199.241 62.824 199.759 65.368 200.794 67.482 C 201.829 69.596 203.288 71.208 205.17 72.316 C 207.05 73.424 209.245 73.978 211.753 73.978 C 213.385 73.978 214.88 73.745 216.237 73.278 C 217.591 72.811 218.759 72.104 219.734 71.157 C 220.712 70.209 221.463 69.035 221.987 67.636 L 232.748 68.904 C 232.048 71.733 230.757 74.204 228.877 76.318 C 226.996 78.432 224.59 80.065 221.66 81.217 C 218.729 82.369 215.368 82.945 211.577 82.945 Z M 239.472 81.983 L 239.472 33.08 L 250.625 33.08 L 250.625 41.303 L 251.151 41.303 C 252.025 38.445 253.556 36.251 255.743 34.72 C 257.93 33.189 260.425 32.424 263.225 32.424 C 263.835 32.424 264.543 32.453 265.344 32.511 C 266.147 32.569 266.81 32.642 267.335 32.73 L 267.335 43.315 C 266.839 43.14 266.066 42.994 265.017 42.878 C 263.968 42.761 262.961 42.703 261.999 42.703 C 259.87 42.703 257.974 43.155 256.312 44.059 C 254.651 44.963 253.346 46.202 252.398 47.777 C 251.45 49.352 250.976 51.189 250.976 53.288 L 250.976 81.983 L 239.472 81.983 Z M 283.154 16.808 L 283.154 81.983 L 271.65 81.983 L 271.65 16.808 L 283.154 16.808 Z M 291.647 81.983 L 291.647 33.08 L 303.152 33.08 L 303.152 81.983 L 291.647 81.983 Z M 297.399 26.212 C 295.577 26.212 294.009 25.601 292.698 24.379 C 291.385 23.157 290.729 21.683 290.729 19.957 C 290.729 18.208 291.385 16.72 292.698 15.496 C 294.009 14.271 295.577 13.658 297.399 13.658 C 299.222 13.658 300.79 14.271 302.101 15.496 C 303.413 16.72 304.07 18.2 304.07 19.935 C 304.07 21.671 303.413 23.15 302.101 24.375 C 300.79 25.6 299.222 26.212 297.399 26.212 Z M 332.952 82.945 C 328.17 82.945 324.029 81.895 320.53 79.796 C 317.03 77.696 314.325 74.751 312.416 70.96 C 310.506 67.169 309.55 62.766 309.55 57.75 C 309.55 52.705 310.506 48.28 312.416 44.474 C 314.325 40.669 317.03 37.716 320.53 35.617 C 324.029 33.517 328.17 32.467 332.952 32.467 C 337.733 32.467 341.875 33.517 345.375 35.617 C 348.873 37.716 351.585 40.669 353.511 44.474 C 355.434 48.28 356.398 52.705 356.398 57.75 C 356.398 62.766 355.434 67.169 353.511 70.96 C 351.585 74.751 348.873 77.696 345.375 79.796 C 341.875 81.895 337.733 82.945 332.952 82.945 Z M 332.952 73.672 C 335.605 73.672 337.792 72.965 339.514 71.55 C 341.233 70.136 342.524 68.219 343.384 65.798 C 344.245 63.378 344.675 60.695 344.675 57.75 C 344.675 54.746 344.245 52.034 343.384 49.614 C 342.524 47.194 341.233 45.276 339.514 43.862 C 337.792 42.448 335.605 41.74 332.952 41.74 C 330.357 41.74 328.183 42.448 326.435 43.862 C 324.684 45.276 323.379 47.194 322.518 49.614 C 321.66 52.034 321.23 54.746 321.23 57.75 C 321.23 60.695 321.66 63.378 322.518 65.798 C 323.379 68.219 324.684 70.136 326.435 71.55 C 328.183 72.965 330.357 73.672 332.952 73.672 Z M 374.259 53.376 L 374.259 81.983 L 362.755 81.983 L 362.755 33.08 L 374.039 33.08 L 374.039 41.434 L 374.608 41.434 C 375.717 38.693 377.46 36.513 379.835 34.895 C 382.213 33.277 385.239 32.467 388.913 32.467 C 392.296 32.467 395.24 33.182 397.749 34.611 C 400.255 36.04 402.202 38.132 403.588 40.887 C 404.972 43.643 405.666 46.975 405.666 50.882 L 405.666 81.983 L 394.161 81.983 L 394.161 52.676 C 394.161 49.41 393.315 46.851 391.623 44.999 C 389.932 43.148 387.6 42.222 384.626 42.222 C 382.613 42.222 380.827 42.659 379.268 43.534 C 377.708 44.409 376.482 45.67 375.594 47.317 C 374.704 48.965 374.259 50.985 374.259 53.376 Z M 422.556 82.726 C 420.573 82.726 418.904 82.048 417.547 80.692 C 416.191 79.336 415.515 77.681 415.515 75.728 C 415.515 73.774 416.191 72.119 417.547 70.763 C 418.904 69.407 420.573 68.729 422.556 68.729 C 424.539 68.729 426.209 69.407 427.565 70.763 C 428.921 72.119 429.599 73.774 429.599 75.728 C 429.599 77.681 428.921 79.336 427.565 80.692 C 426.209 82.048 424.539 82.726 422.556 82.726 Z M 465.38 82.857 C 462.608 82.857 460.298 82.384 458.446 81.436 C 456.594 80.488 455.107 79.351 453.985 78.024 C 452.862 76.697 452.01 75.436 451.427 74.24 L 450.727 74.24 L 450.727 81.983 L 439.44 81.983 L 439.44 16.808 L 450.945 16.808 L 450.945 41.172 L 451.427 41.172 C 452.01 40.005 452.841 38.744 453.919 37.388 C 454.998 36.032 456.463 34.873 458.315 33.911 C 460.167 32.949 462.537 32.467 465.424 32.467 C 469.185 32.467 472.582 33.43 475.616 35.354 C 478.648 37.279 481.061 40.108 482.853 43.84 C 484.648 47.573 485.544 52.166 485.544 57.619 C 485.544 62.984 484.67 67.548 482.919 71.31 C 481.17 75.072 478.773 77.937 475.725 79.905 C 472.677 81.873 469.229 82.857 465.38 82.857 Z M 462.229 73.409 C 464.768 73.409 466.889 72.724 468.594 71.353 C 470.3 69.983 471.591 68.102 472.465 65.711 C 473.339 63.319 473.778 60.607 473.778 57.575 C 473.778 54.542 473.339 51.845 472.465 49.483 C 471.591 47.121 470.308 45.269 468.616 43.928 C 466.925 42.586 464.797 41.916 462.229 41.916 C 459.751 41.916 457.659 42.557 455.954 43.84 C 454.246 45.123 452.95 46.939 452.061 49.286 C 451.171 51.633 450.727 54.396 450.727 57.575 C 450.727 60.724 451.171 63.487 452.061 65.864 C 452.95 68.241 454.254 70.092 455.975 71.419 C 457.697 72.746 459.781 73.409 462.229 73.409 Z M 513.217 82.945 C 508.434 82.945 504.294 81.895 500.794 79.796 C 497.295 77.696 494.59 74.751 492.68 70.96 C 490.769 67.169 489.815 62.766 489.815 57.75 C 489.815 52.705 490.769 48.28 492.68 44.474 C 494.59 40.669 497.295 37.716 500.794 35.617 C 504.294 33.517 508.434 32.467 513.217 32.467 C 517.998 32.467 522.14 33.517 525.638 35.617 C 529.137 37.716 531.85 40.669 533.775 44.474 C 535.699 48.28 536.662 52.705 536.662 57.75 C 536.662 62.766 535.699 67.169 533.775 70.96 C 531.85 74.751 529.137 77.696 525.638 79.796 C 522.14 81.895 517.998 82.945 513.217 82.945 Z M 513.217 73.672 C 515.87 73.672 518.057 72.965 519.776 71.55 C 521.497 70.136 522.788 68.219 523.649 65.798 C 524.509 63.378 524.94 60.695 524.94 57.75 C 524.94 54.746 524.509 52.034 523.649 49.614 C 522.788 47.194 521.497 45.276 519.776 43.862 C 518.057 42.448 515.87 41.74 513.217 41.74 C 510.621 41.74 508.448 42.448 506.699 43.862 C 504.948 45.276 503.644 47.194 502.783 49.614 C 501.923 52.034 501.494 54.746 501.494 57.75 C 501.494 60.695 501.923 63.378 502.783 65.798 C 503.644 68.219 504.948 70.136 506.699 71.55 C 508.448 72.965 510.621 73.672 513.217 73.672 Z M 567.389 33.08 L 567.389 42.003 L 539.349 42.003 L 539.349 33.08 L 567.389 33.08 Z M 546.218 21.445 L 557.721 21.445 L 557.721 67.286 C 557.721 69.21 558.145 70.632 558.99 71.55 C 559.836 72.469 561.177 72.928 563.015 72.928 C 563.511 72.928 564.064 72.884 564.676 72.797 C 565.289 72.709 565.842 72.607 566.338 72.491 L 568.307 81.501 C 567.082 81.881 565.842 82.165 564.589 82.354 C 563.334 82.544 562.081 82.639 560.828 82.639 C 556.277 82.639 552.706 81.436 550.11 79.03 C 547.515 76.624 546.218 73.336 546.218 69.166 L 546.218 21.445 Z" style="fill: rgb(76, 29, 149); text-wrap-mode: nowrap; stroke-width: 0.198;"/>
  <defs>
    <bx:grid x="0" y="0" width="100" height="100"/>
  </defs>
</svg>