<?xml version="1.0" encoding="utf-8"?>
<svg xmlns="http://www.w3.org/2000/svg" viewBox="0 0 500 500">
  <path d="M 239.322 15.177 C 116.707 15.177 17.307 114.576 17.307 237.192 C 17.307 359.808 116.707 459.207 239.322 459.207 C 361.938 459.207 461.337 359.808 461.337 237.192 C 461.337 114.576 361.938 15.177 239.322 15.177 Z M 10.11 238.092 C 10.11 111.527 112.71 8.927 239.275 8.927 C 327.334 8.927 403.793 58.594 442.165 131.445 C 439.067 125.166 435.69 119.048 432.051 113.11 C 468.093 153.598 489.991 206.955 489.991 265.426 C 489.991 391.99 387.391 494.59 260.827 494.59 C 181.543 494.59 111.661 454.327 70.516 393.133 C 33.008 352.329 10.11 297.885 10.11 238.092 Z" style="fill: rgb(216, 216, 216); stroke-width: 1;"/>
  <g transform="matrix(0.440848, 0, 0, 0.440848, 10.720705, 14.032331)" id="图层_1" style="">
    <g>
      <g>
        <path class="st0" d="M377,419.5L225,512l152,92.5v78.9l-187-121.9v-99l187-121.9V419.5z" style="fill: rgb(217, 215, 216);"/>
      </g>
      <g>
        <path class="st0" d="M552.5,388.1h69.7L474.7,628.5h-69.6L552.5,388.1z" style="fill: rgb(217, 215, 216);"/>
      </g>
      <g>
        <path class="st0" d="M647,340.6l187,121.9v99L647,683.4v-78.9L799,512l-152-92.5V340.6z" style="fill: rgb(217, 215, 216);"/>
      </g>
    </g>
  </g>
</svg>